<?xml version="1.0" encoding="UTF-8"?>
<svg xmlns="http://www.w3.org/2000/svg" xmlns:xlink="http://www.w3.org/1999/xlink" width="457" height="408" viewBox="0 0 457 408">
<defs>
<g>
<g id="glyph-0-0">
<path d="M 0.875 -6.546875 L 5.015625 -6.546875 L 5.015625 -5.796875 L 1.765625 -5.796875 L 1.765625 -3.859375 L 4.890625 -3.859375 L 4.890625 -3.125 L 1.765625 -3.125 L 1.765625 -0.75 L 5.109375 -0.75 L 5.109375 0 L 0.875 0 Z M 0.875 -6.546875 "/>
</g>
<g id="glyph-0-1">
<path d="M 4.9375 -2.96875 L 4.9375 0 L 4.125 0 L 4.125 -2.9375 C 4.125 -3.40625 4.03125 -3.753906 3.84375 -3.984375 C 3.664062 -4.210938 3.394531 -4.328125 3.03125 -4.328125 C 2.59375 -4.328125 2.25 -4.1875 2 -3.90625 C 1.75 -3.632812 1.625 -3.257812 1.625 -2.78125 L 1.625 0 L 0.8125 0 L 0.8125 -4.90625 L 1.625 -4.90625 L 1.625 -4.15625 C 1.820312 -4.445312 2.050781 -4.664062 2.3125 -4.8125 C 2.570312 -4.957031 2.875 -5.03125 3.21875 -5.03125 C 3.78125 -5.03125 4.207031 -4.851562 4.5 -4.5 C 4.789062 -4.15625 4.9375 -3.644531 4.9375 -2.96875 Z M 4.9375 -2.96875 "/>
</g>
<g id="glyph-0-2">
<path d="M 1.640625 -6.3125 L 1.640625 -4.90625 L 3.3125 -4.90625 L 3.3125 -4.28125 L 1.640625 -4.28125 L 1.640625 -1.625 C 1.640625 -1.21875 1.691406 -0.957031 1.796875 -0.84375 C 1.910156 -0.726562 2.140625 -0.671875 2.484375 -0.671875 L 3.3125 -0.671875 L 3.3125 0 L 2.484375 0 C 1.859375 0 1.425781 -0.113281 1.1875 -0.34375 C 0.945312 -0.582031 0.828125 -1.007812 0.828125 -1.625 L 0.828125 -4.28125 L 0.234375 -4.28125 L 0.234375 -4.90625 L 0.828125 -4.90625 L 0.828125 -6.3125 Z M 1.640625 -6.3125 "/>
</g>
<g id="glyph-0-3">
<path d="M 0.84375 -4.90625 L 1.65625 -4.90625 L 1.65625 0 L 0.84375 0 Z M 0.84375 -6.828125 L 1.65625 -6.828125 L 1.65625 -5.796875 L 0.84375 -5.796875 Z M 0.84375 -6.828125 "/>
</g>
<g id="glyph-0-4">
<path d="M 2.890625 0.453125 C 2.660156 1.035156 2.4375 1.414062 2.21875 1.59375 C 2.007812 1.78125 1.722656 1.875 1.359375 1.875 L 0.703125 1.875 L 0.703125 1.1875 L 1.1875 1.1875 C 1.40625 1.1875 1.578125 1.132812 1.703125 1.03125 C 1.828125 0.925781 1.960938 0.679688 2.109375 0.296875 L 2.25 -0.078125 L 0.265625 -4.90625 L 1.125 -4.90625 L 2.65625 -1.078125 L 4.1875 -4.90625 L 5.046875 -4.90625 Z M 2.890625 0.453125 "/>
</g>
<g id="glyph-0-5">
<path d="M 0.265625 -4.90625 L 1.125 -4.90625 L 2.65625 -0.796875 L 4.1875 -4.90625 L 5.046875 -4.90625 L 3.203125 0 L 2.109375 0 Z M 0.265625 -4.90625 "/>
</g>
<g id="glyph-0-6">
<path d="M 3.078125 -2.46875 C 2.421875 -2.46875 1.96875 -2.390625 1.71875 -2.234375 C 1.46875 -2.085938 1.34375 -1.835938 1.34375 -1.484375 C 1.34375 -1.191406 1.4375 -0.960938 1.625 -0.796875 C 1.8125 -0.628906 2.070312 -0.546875 2.40625 -0.546875 C 2.851562 -0.546875 3.207031 -0.703125 3.46875 -1.015625 C 3.738281 -1.335938 3.875 -1.765625 3.875 -2.296875 L 3.875 -2.46875 Z M 4.6875 -2.796875 L 4.6875 0 L 3.875 0 L 3.875 -0.75 C 3.695312 -0.445312 3.46875 -0.222656 3.1875 -0.078125 C 2.914062 0.0546875 2.582031 0.125 2.1875 0.125 C 1.6875 0.125 1.285156 -0.015625 0.984375 -0.296875 C 0.691406 -0.578125 0.546875 -0.957031 0.546875 -1.4375 C 0.546875 -1.988281 0.726562 -2.398438 1.09375 -2.671875 C 1.46875 -2.953125 2.019531 -3.09375 2.75 -3.09375 L 3.875 -3.09375 L 3.875 -3.1875 C 3.875 -3.550781 3.753906 -3.832031 3.515625 -4.03125 C 3.273438 -4.238281 2.929688 -4.34375 2.484375 -4.34375 C 2.203125 -4.34375 1.925781 -4.304688 1.65625 -4.234375 C 1.394531 -4.171875 1.144531 -4.070312 0.90625 -3.9375 L 0.90625 -4.6875 C 1.195312 -4.800781 1.476562 -4.882812 1.75 -4.9375 C 2.03125 -5 2.304688 -5.03125 2.578125 -5.03125 C 3.285156 -5.03125 3.8125 -4.84375 4.15625 -4.46875 C 4.507812 -4.101562 4.6875 -3.546875 4.6875 -2.796875 Z M 4.6875 -2.796875 "/>
</g>
<g id="glyph-0-7">
<path d="M 0.84375 -6.828125 L 1.65625 -6.828125 L 1.65625 0 L 0.84375 0 Z M 0.84375 -6.828125 "/>
</g>
<g id="glyph-0-8">
<path d="M 0.765625 -1.9375 L 0.765625 -4.90625 L 1.578125 -4.90625 L 1.578125 -1.96875 C 1.578125 -1.5 1.664062 -1.148438 1.84375 -0.921875 C 2.019531 -0.691406 2.289062 -0.578125 2.65625 -0.578125 C 3.09375 -0.578125 3.4375 -0.710938 3.6875 -0.984375 C 3.945312 -1.265625 4.078125 -1.644531 4.078125 -2.125 L 4.078125 -4.90625 L 4.875 -4.90625 L 4.875 0 L 4.078125 0 L 4.078125 -0.75 C 3.878906 -0.457031 3.648438 -0.238281 3.390625 -0.09375 C 3.128906 0.0507812 2.828125 0.125 2.484375 0.125 C 1.921875 0.125 1.492188 -0.046875 1.203125 -0.390625 C 0.910156 -0.742188 0.765625 -1.257812 0.765625 -1.9375 Z M 2.796875 -5.03125 Z M 2.796875 -5.03125 "/>
</g>
<g id="glyph-0-9">
<path d="M 5.046875 -2.65625 L 5.046875 -2.265625 L 1.34375 -2.265625 C 1.375 -1.710938 1.539062 -1.289062 1.84375 -1 C 2.144531 -0.707031 2.5625 -0.5625 3.09375 -0.5625 C 3.40625 -0.5625 3.707031 -0.597656 4 -0.671875 C 4.289062 -0.742188 4.578125 -0.859375 4.859375 -1.015625 L 4.859375 -0.25 C 4.566406 -0.125 4.269531 -0.0273438 3.96875 0.03125 C 3.664062 0.09375 3.359375 0.125 3.046875 0.125 C 2.265625 0.125 1.644531 -0.0976562 1.1875 -0.546875 C 0.726562 -1.003906 0.5 -1.625 0.5 -2.40625 C 0.5 -3.207031 0.710938 -3.84375 1.140625 -4.3125 C 1.578125 -4.789062 2.164062 -5.03125 2.90625 -5.03125 C 3.5625 -5.03125 4.082031 -4.816406 4.46875 -4.390625 C 4.851562 -3.960938 5.046875 -3.382812 5.046875 -2.65625 Z M 4.234375 -2.890625 C 4.234375 -3.335938 4.113281 -3.691406 3.875 -3.953125 C 3.632812 -4.210938 3.3125 -4.34375 2.90625 -4.34375 C 2.457031 -4.34375 2.097656 -4.210938 1.828125 -3.953125 C 1.554688 -3.703125 1.398438 -3.347656 1.359375 -2.890625 Z M 4.234375 -2.890625 "/>
</g>
<g id="glyph-0-10">
<path d="M 3.546875 -5.953125 C 2.898438 -5.953125 2.382812 -5.710938 2 -5.234375 C 1.625 -4.753906 1.4375 -4.097656 1.4375 -3.265625 C 1.4375 -2.441406 1.625 -1.789062 2 -1.3125 C 2.382812 -0.832031 2.898438 -0.59375 3.546875 -0.59375 C 4.179688 -0.59375 4.6875 -0.832031 5.0625 -1.3125 C 5.4375 -1.789062 5.625 -2.441406 5.625 -3.265625 C 5.625 -4.097656 5.4375 -4.753906 5.0625 -5.234375 C 4.6875 -5.710938 4.179688 -5.953125 3.546875 -5.953125 Z M 3.546875 -6.671875 C 4.460938 -6.671875 5.191406 -6.363281 5.734375 -5.75 C 6.285156 -5.132812 6.5625 -4.304688 6.5625 -3.265625 C 6.5625 -2.234375 6.285156 -1.410156 5.734375 -0.796875 C 5.191406 -0.179688 4.460938 0.125 3.546875 0.125 C 2.617188 0.125 1.878906 -0.179688 1.328125 -0.796875 C 0.773438 -1.410156 0.5 -2.234375 0.5 -3.265625 C 0.5 -4.304688 0.773438 -5.132812 1.328125 -5.75 C 1.878906 -6.363281 2.617188 -6.671875 3.546875 -6.671875 Z M 3.546875 -6.671875 "/>
</g>
<g id="glyph-0-11">
<path d="M 4.375 -4.71875 L 4.375 -3.96875 C 4.15625 -4.09375 3.929688 -4.1875 3.703125 -4.25 C 3.472656 -4.3125 3.238281 -4.34375 3 -4.34375 C 2.476562 -4.34375 2.070312 -4.175781 1.78125 -3.84375 C 1.488281 -3.519531 1.34375 -3.054688 1.34375 -2.453125 C 1.34375 -1.847656 1.488281 -1.378906 1.78125 -1.046875 C 2.070312 -0.722656 2.476562 -0.5625 3 -0.5625 C 3.238281 -0.5625 3.472656 -0.59375 3.703125 -0.65625 C 3.929688 -0.71875 4.15625 -0.8125 4.375 -0.9375 L 4.375 -0.1875 C 4.15625 -0.0820312 3.925781 -0.00390625 3.6875 0.046875 C 3.445312 0.0976562 3.1875 0.125 2.90625 0.125 C 2.164062 0.125 1.578125 -0.101562 1.140625 -0.5625 C 0.710938 -1.03125 0.5 -1.660156 0.5 -2.453125 C 0.5 -3.253906 0.71875 -3.882812 1.15625 -4.34375 C 1.59375 -4.800781 2.195312 -5.03125 2.96875 -5.03125 C 3.21875 -5.03125 3.457031 -5.003906 3.6875 -4.953125 C 3.925781 -4.898438 4.15625 -4.820312 4.375 -4.71875 Z M 4.375 -4.71875 "/>
</g>
<g id="glyph-0-12">
<path d="M 2.75 -4.34375 C 2.3125 -4.34375 1.96875 -4.171875 1.71875 -3.828125 C 1.46875 -3.492188 1.34375 -3.035156 1.34375 -2.453125 C 1.34375 -1.867188 1.46875 -1.40625 1.71875 -1.0625 C 1.96875 -0.726562 2.3125 -0.5625 2.75 -0.5625 C 3.175781 -0.5625 3.515625 -0.726562 3.765625 -1.0625 C 4.023438 -1.40625 4.15625 -1.867188 4.15625 -2.453125 C 4.15625 -3.035156 4.023438 -3.492188 3.765625 -3.828125 C 3.515625 -4.171875 3.175781 -4.34375 2.75 -4.34375 Z M 2.75 -5.03125 C 3.445312 -5.03125 3.992188 -4.800781 4.390625 -4.34375 C 4.796875 -3.882812 5 -3.253906 5 -2.453125 C 5 -1.648438 4.796875 -1.019531 4.390625 -0.5625 C 3.992188 -0.101562 3.445312 0.125 2.75 0.125 C 2.039062 0.125 1.488281 -0.101562 1.09375 -0.5625 C 0.695312 -1.019531 0.5 -1.648438 0.5 -2.453125 C 0.5 -3.253906 0.695312 -3.882812 1.09375 -4.34375 C 1.488281 -4.800781 2.039062 -5.03125 2.75 -5.03125 Z M 2.75 -5.03125 "/>
</g>
<g id="glyph-0-13">
<path d="M 4.671875 -3.96875 C 4.867188 -4.332031 5.109375 -4.597656 5.390625 -4.765625 C 5.671875 -4.941406 6.003906 -5.03125 6.390625 -5.03125 C 6.898438 -5.03125 7.289062 -4.847656 7.5625 -4.484375 C 7.84375 -4.128906 7.984375 -3.625 7.984375 -2.96875 L 7.984375 0 L 7.171875 0 L 7.171875 -2.9375 C 7.171875 -3.40625 7.085938 -3.753906 6.921875 -3.984375 C 6.753906 -4.210938 6.5 -4.328125 6.15625 -4.328125 C 5.738281 -4.328125 5.410156 -4.1875 5.171875 -3.90625 C 4.929688 -3.632812 4.8125 -3.257812 4.8125 -2.78125 L 4.8125 0 L 4 0 L 4 -2.9375 C 4 -3.414062 3.914062 -3.765625 3.75 -3.984375 C 3.582031 -4.210938 3.320312 -4.328125 2.96875 -4.328125 C 2.5625 -4.328125 2.234375 -4.1875 1.984375 -3.90625 C 1.742188 -3.625 1.625 -3.25 1.625 -2.78125 L 1.625 0 L 0.8125 0 L 0.8125 -4.90625 L 1.625 -4.90625 L 1.625 -4.15625 C 1.8125 -4.457031 2.03125 -4.675781 2.28125 -4.8125 C 2.539062 -4.957031 2.847656 -5.03125 3.203125 -5.03125 C 3.554688 -5.03125 3.859375 -4.9375 4.109375 -4.75 C 4.367188 -4.570312 4.554688 -4.3125 4.671875 -3.96875 Z M 4.671875 -3.96875 "/>
</g>
<g id="glyph-0-14">
</g>
<g id="glyph-0-15">
<path d="M 3.078125 -5.671875 L 1.875 -2.421875 L 4.28125 -2.421875 Z M 2.578125 -6.546875 L 3.578125 -6.546875 L 6.078125 0 L 5.15625 0 L 4.546875 -1.6875 L 1.59375 -1.6875 L 1 0 L 0.0625 0 Z M 2.578125 -6.546875 "/>
</g>
<g id="glyph-0-16">
<path d="M 1.765625 -3.125 L 1.765625 -0.734375 L 3.1875 -0.734375 C 3.664062 -0.734375 4.019531 -0.832031 4.25 -1.03125 C 4.476562 -1.226562 4.59375 -1.53125 4.59375 -1.9375 C 4.59375 -2.34375 4.476562 -2.640625 4.25 -2.828125 C 4.019531 -3.023438 3.664062 -3.125 3.1875 -3.125 Z M 1.765625 -5.828125 L 1.765625 -3.84375 L 3.078125 -3.84375 C 3.515625 -3.84375 3.835938 -3.921875 4.046875 -4.078125 C 4.253906 -4.242188 4.359375 -4.492188 4.359375 -4.828125 C 4.359375 -5.160156 4.253906 -5.410156 4.046875 -5.578125 C 3.835938 -5.742188 3.515625 -5.828125 3.078125 -5.828125 Z M 0.875 -6.546875 L 3.140625 -6.546875 C 3.816406 -6.546875 4.335938 -6.40625 4.703125 -6.125 C 5.066406 -5.84375 5.25 -5.445312 5.25 -4.9375 C 5.25 -4.53125 5.15625 -4.207031 4.96875 -3.96875 C 4.78125 -3.738281 4.507812 -3.59375 4.15625 -3.53125 C 4.582031 -3.4375 4.914062 -3.238281 5.15625 -2.9375 C 5.40625 -2.644531 5.53125 -2.273438 5.53125 -1.828125 C 5.53125 -1.242188 5.328125 -0.789062 4.921875 -0.46875 C 4.523438 -0.15625 3.960938 0 3.234375 0 L 0.875 0 Z M 0.875 -6.546875 "/>
</g>
<g id="glyph-0-17">
<path d="M 5.78125 -6.046875 L 5.78125 -5.109375 C 5.488281 -5.390625 5.171875 -5.597656 4.828125 -5.734375 C 4.492188 -5.867188 4.132812 -5.9375 3.75 -5.9375 C 3 -5.9375 2.425781 -5.707031 2.03125 -5.25 C 1.632812 -4.789062 1.4375 -4.128906 1.4375 -3.265625 C 1.4375 -2.398438 1.632812 -1.738281 2.03125 -1.28125 C 2.425781 -0.820312 3 -0.59375 3.75 -0.59375 C 4.132812 -0.59375 4.492188 -0.660156 4.828125 -0.796875 C 5.171875 -0.941406 5.488281 -1.15625 5.78125 -1.4375 L 5.78125 -0.5 C 5.476562 -0.289062 5.148438 -0.132812 4.796875 -0.03125 C 4.453125 0.0703125 4.085938 0.125 3.703125 0.125 C 2.710938 0.125 1.929688 -0.175781 1.359375 -0.78125 C 0.785156 -1.382812 0.5 -2.210938 0.5 -3.265625 C 0.5 -4.316406 0.785156 -5.144531 1.359375 -5.75 C 1.929688 -6.363281 2.710938 -6.671875 3.703125 -6.671875 C 4.097656 -6.671875 4.46875 -6.617188 4.8125 -6.515625 C 5.15625 -6.410156 5.476562 -6.253906 5.78125 -6.046875 Z M 5.78125 -6.046875 "/>
</g>
<g id="glyph-1-0">
<path d="M 2.65625 -3.1875 L 2.65625 -2.671875 C 2.5 -2.753906 2.335938 -2.8125 2.171875 -2.84375 C 2.015625 -2.882812 1.847656 -2.90625 1.671875 -2.90625 C 1.398438 -2.90625 1.195312 -2.863281 1.0625 -2.78125 C 0.9375 -2.695312 0.875 -2.578125 0.875 -2.421875 C 0.875 -2.296875 0.921875 -2.195312 1.015625 -2.125 C 1.109375 -2.050781 1.300781 -1.984375 1.59375 -1.921875 L 1.78125 -1.875 C 2.15625 -1.789062 2.421875 -1.675781 2.578125 -1.53125 C 2.742188 -1.382812 2.828125 -1.175781 2.828125 -0.90625 C 2.828125 -0.601562 2.707031 -0.363281 2.46875 -0.1875 C 2.226562 -0.0078125 1.898438 0.078125 1.484375 0.078125 C 1.304688 0.078125 1.117188 0.0625 0.921875 0.03125 C 0.734375 0 0.535156 -0.0507812 0.328125 -0.125 L 0.328125 -0.671875 C 0.523438 -0.566406 0.71875 -0.488281 0.90625 -0.4375 C 1.101562 -0.382812 1.296875 -0.359375 1.484375 -0.359375 C 1.742188 -0.359375 1.941406 -0.398438 2.078125 -0.484375 C 2.210938 -0.578125 2.28125 -0.703125 2.28125 -0.859375 C 2.28125 -1.003906 2.226562 -1.113281 2.125 -1.1875 C 2.03125 -1.269531 1.816406 -1.347656 1.484375 -1.421875 L 1.296875 -1.46875 C 0.960938 -1.539062 0.71875 -1.648438 0.5625 -1.796875 C 0.414062 -1.941406 0.34375 -2.140625 0.34375 -2.390625 C 0.34375 -2.703125 0.453125 -2.941406 0.671875 -3.109375 C 0.890625 -3.273438 1.203125 -3.359375 1.609375 -3.359375 C 1.804688 -3.359375 1.992188 -3.34375 2.171875 -3.3125 C 2.347656 -3.28125 2.507812 -3.238281 2.65625 -3.1875 Z M 2.65625 -3.1875 "/>
</g>
<g id="glyph-1-1">
<path d="M 1.09375 -4.21875 L 1.09375 -3.28125 L 2.203125 -3.28125 L 2.203125 -2.859375 L 1.09375 -2.859375 L 1.09375 -1.078125 C 1.09375 -0.816406 1.128906 -0.644531 1.203125 -0.5625 C 1.273438 -0.488281 1.425781 -0.453125 1.65625 -0.453125 L 2.203125 -0.453125 L 2.203125 0 L 1.65625 0 C 1.238281 0 0.953125 -0.078125 0.796875 -0.234375 C 0.640625 -0.390625 0.5625 -0.671875 0.5625 -1.078125 L 0.5625 -2.859375 L 0.15625 -2.859375 L 0.15625 -3.28125 L 0.5625 -3.28125 L 0.5625 -4.21875 Z M 1.09375 -4.21875 "/>
</g>
<g id="glyph-1-2">
<path d="M 2.0625 -1.65625 C 1.625 -1.65625 1.320312 -1.601562 1.15625 -1.5 C 0.988281 -1.394531 0.90625 -1.222656 0.90625 -0.984375 C 0.90625 -0.796875 0.96875 -0.644531 1.09375 -0.53125 C 1.21875 -0.414062 1.390625 -0.359375 1.609375 -0.359375 C 1.898438 -0.359375 2.132812 -0.460938 2.3125 -0.671875 C 2.5 -0.890625 2.59375 -1.175781 2.59375 -1.53125 L 2.59375 -1.65625 Z M 3.125 -1.875 L 3.125 0 L 2.59375 0 L 2.59375 -0.5 C 2.46875 -0.300781 2.3125 -0.15625 2.125 -0.0625 C 1.945312 0.0273438 1.722656 0.078125 1.453125 0.078125 C 1.117188 0.078125 0.851562 -0.015625 0.65625 -0.203125 C 0.457031 -0.390625 0.359375 -0.640625 0.359375 -0.953125 C 0.359375 -1.328125 0.484375 -1.609375 0.734375 -1.796875 C 0.984375 -1.984375 1.351562 -2.078125 1.84375 -2.078125 L 2.59375 -2.078125 L 2.59375 -2.125 C 2.59375 -2.375 2.507812 -2.566406 2.34375 -2.703125 C 2.1875 -2.835938 1.957031 -2.90625 1.65625 -2.90625 C 1.46875 -2.90625 1.285156 -2.878906 1.109375 -2.828125 C 0.929688 -2.785156 0.757812 -2.722656 0.59375 -2.640625 L 0.59375 -3.125 C 0.789062 -3.207031 0.984375 -3.265625 1.171875 -3.296875 C 1.359375 -3.335938 1.539062 -3.359375 1.71875 -3.359375 C 2.1875 -3.359375 2.535156 -3.234375 2.765625 -2.984375 C 3.003906 -2.742188 3.125 -2.375 3.125 -1.875 Z M 3.125 -1.875 "/>
</g>
<g id="glyph-1-3">
<path d="M 3.375 -1.78125 L 3.375 -1.515625 L 0.890625 -1.515625 C 0.910156 -1.140625 1.019531 -0.851562 1.21875 -0.65625 C 1.425781 -0.46875 1.707031 -0.375 2.0625 -0.375 C 2.269531 -0.375 2.46875 -0.398438 2.65625 -0.453125 C 2.851562 -0.503906 3.050781 -0.578125 3.25 -0.671875 L 3.25 -0.171875 C 3.050781 -0.0859375 2.847656 -0.0234375 2.640625 0.015625 C 2.441406 0.0546875 2.238281 0.078125 2.03125 0.078125 C 1.507812 0.078125 1.09375 -0.0703125 0.78125 -0.375 C 0.476562 -0.675781 0.328125 -1.085938 0.328125 -1.609375 C 0.328125 -2.148438 0.472656 -2.578125 0.765625 -2.890625 C 1.054688 -3.203125 1.445312 -3.359375 1.9375 -3.359375 C 2.382812 -3.359375 2.734375 -3.21875 2.984375 -2.9375 C 3.242188 -2.65625 3.375 -2.269531 3.375 -1.78125 Z M 2.828125 -1.9375 C 2.828125 -2.226562 2.742188 -2.460938 2.578125 -2.640625 C 2.421875 -2.816406 2.210938 -2.90625 1.953125 -2.90625 C 1.648438 -2.90625 1.40625 -2.816406 1.21875 -2.640625 C 1.039062 -2.472656 0.9375 -2.238281 0.90625 -1.9375 Z M 2.828125 -1.9375 "/>
</g>
</g>
</defs>
<rect x="-45.7" y="-40.8" width="548.4" height="489.6" fill="rgb(100%, 100%, 100%)" fill-opacity="1"/>
<path fill="none" stroke-width="0.9375" stroke-linecap="round" stroke-linejoin="round" stroke="rgb(33.333333%, 33.333333%, 33.333333%)" stroke-opacity="1" stroke-miterlimit="10" d="M 228.5 138.496094 L 228.5 106.304688 "/>
<path fill="none" stroke-width="0.9375" stroke-linecap="round" stroke-linejoin="round" stroke="rgb(33.333333%, 33.333333%, 33.333333%)" stroke-opacity="1" stroke-miterlimit="10" d="M 228.5 128.761719 L 228.5 217.101562 L 93.746094 254.53125 L 93.746094 295.707031 "/>
<path fill="none" stroke-width="0.9375" stroke-linecap="round" stroke-linejoin="round" stroke="rgb(33.333333%, 33.333333%, 33.333333%)" stroke-opacity="1" stroke-miterlimit="10" d="M 228.5 128.761719 L 228.5 325.652344 "/>
<path fill="none" stroke-width="0.9375" stroke-linecap="round" stroke-linejoin="round" stroke="rgb(33.333333%, 33.333333%, 33.333333%)" stroke-opacity="1" stroke-miterlimit="10" d="M 228.5 128.761719 L 228.5 217.101562 L 363.253906 254.53125 L 363.253906 295.707031 "/>
<path fill-rule="nonzero" fill="rgb(100%, 100%, 100%)" fill-opacity="1" stroke-width="0.9375" stroke-linecap="round" stroke-linejoin="round" stroke="rgb(33.333333%, 33.333333%, 33.333333%)" stroke-opacity="1" stroke-miterlimit="10" d="M 167.113281 37.429688 L 289.886719 37.429688 L 290.738281 37.492188 L 291.574219 37.671875 L 292.375 37.972656 L 293.125 38.382812 L 293.808594 38.894531 L 294.414062 39.5 L 294.925781 40.183594 L 295.335938 40.933594 L 295.632812 41.734375 L 295.816406 42.566406 L 295.875 43.421875 L 295.875 91.332031 L 295.816406 92.183594 L 295.632812 93.019531 L 295.335938 93.820312 L 294.925781 94.570312 L 294.414062 95.253906 L 293.808594 95.859375 L 293.125 96.371094 L 292.375 96.78125 L 291.574219 97.078125 L 290.738281 97.261719 L 289.886719 97.320312 L 167.113281 97.320312 L 166.261719 97.261719 L 165.425781 97.078125 L 164.625 96.78125 L 163.875 96.371094 L 163.191406 95.859375 L 162.585938 95.253906 L 162.074219 94.570312 L 161.664062 93.820312 L 161.367188 93.019531 L 161.183594 92.183594 L 161.125 91.332031 L 161.125 43.421875 L 161.183594 42.566406 L 161.367188 41.734375 L 161.664062 40.933594 L 162.074219 40.183594 L 162.585938 39.5 L 163.191406 38.894531 L 163.875 38.382812 L 164.625 37.972656 L 165.425781 37.671875 L 166.261719 37.492188 Z M 167.113281 37.429688 "/>
<g fill="rgb(0%, 0%, 0%)" fill-opacity="1">
<use xlink:href="#glyph-0-0" x="215" y="69.213867"/>
<use xlink:href="#glyph-0-1" x="221" y="69.213867"/>
<use xlink:href="#glyph-0-2" x="227" y="69.213867"/>
<use xlink:href="#glyph-0-3" x="231" y="69.213867"/>
<use xlink:href="#glyph-0-2" x="233" y="69.213867"/>
<use xlink:href="#glyph-0-4" x="237" y="69.213867"/>
</g>
<path fill-rule="nonzero" fill="rgb(100%, 100%, 100%)" fill-opacity="1" stroke-width="0.9375" stroke-linecap="round" stroke-linejoin="round" stroke="rgb(33.333333%, 33.333333%, 33.333333%)" stroke-opacity="1" stroke-miterlimit="10" d="M 228.5 88.335938 L 229.328125 88.375 L 230.152344 88.492188 L 230.957031 88.679688 L 231.746094 88.945312 L 232.503906 89.28125 L 233.230469 89.683594 L 233.914062 90.152344 L 234.550781 90.683594 L 235.140625 91.269531 L 235.667969 91.90625 L 236.136719 92.59375 L 236.542969 93.316406 L 236.875 94.074219 L 237.140625 94.863281 L 237.332031 95.671875 L 237.445312 96.492188 L 237.484375 97.320312 L 237.445312 98.148438 L 237.332031 98.972656 L 237.140625 99.78125 L 236.875 100.566406 L 236.542969 101.324219 L 236.136719 102.050781 L 235.667969 102.734375 L 235.140625 103.375 L 234.550781 103.960938 L 233.914062 104.488281 L 233.230469 104.960938 L 232.503906 105.363281 L 231.746094 105.699219 L 230.957031 105.960938 L 230.152344 106.152344 L 229.328125 106.265625 L 228.5 106.304688 L 227.671875 106.265625 L 226.847656 106.152344 L 226.042969 105.960938 L 225.253906 105.699219 L 224.496094 105.363281 L 223.769531 104.960938 L 223.085938 104.488281 L 222.449219 103.960938 L 221.859375 103.375 L 221.332031 102.734375 L 220.863281 102.050781 L 220.457031 101.324219 L 220.125 100.566406 L 219.859375 99.78125 L 219.667969 98.972656 L 219.554688 98.148438 L 219.515625 97.320312 L 219.554688 96.492188 L 219.667969 95.671875 L 219.859375 94.863281 L 220.125 94.074219 L 220.457031 93.316406 L 220.863281 92.59375 L 221.332031 91.90625 L 221.859375 91.269531 L 222.449219 90.683594 L 223.085938 90.152344 L 223.769531 89.683594 L 224.496094 89.28125 L 225.253906 88.945312 L 226.042969 88.679688 L 226.847656 88.492188 L 227.671875 88.375 Z M 228.5 88.335938 "/>
<g fill="rgb(0%, 0%, 0%)" fill-opacity="1">
<use xlink:href="#glyph-1-0" x="221" y="98.889648"/>
<use xlink:href="#glyph-1-1" x="224" y="98.889648"/>
<use xlink:href="#glyph-1-2" x="226" y="98.889648"/>
<use xlink:href="#glyph-1-1" x="230" y="98.889648"/>
<use xlink:href="#glyph-1-3" x="232" y="98.889648"/>
</g>
<path fill-rule="nonzero" fill="rgb(100%, 100%, 100%)" fill-opacity="1" stroke-width="0.9375" stroke-linecap="round" stroke-linejoin="round" stroke="rgb(33.333333%, 33.333333%, 33.333333%)" stroke-opacity="1" stroke-miterlimit="10" d="M 215.023438 138.496094 L 241.976562 138.496094 L 243.148438 138.550781 L 244.3125 138.710938 L 245.457031 138.980469 L 246.574219 139.355469 L 247.648438 139.828125 L 248.675781 140.402344 L 249.644531 141.066406 L 250.550781 141.816406 L 251.378906 142.648438 L 252.132812 143.550781 L 252.796875 144.523438 L 253.367188 145.550781 L 253.84375 146.625 L 254.214844 147.738281 L 254.484375 148.882812 L 254.648438 150.046875 L 254.703125 151.222656 L 254.648438 152.394531 L 254.484375 153.558594 L 254.214844 154.703125 L 253.84375 155.820312 L 253.367188 156.894531 L 252.796875 157.921875 L 252.132812 158.890625 L 251.378906 159.796875 L 250.550781 160.628906 L 249.644531 161.378906 L 248.675781 162.042969 L 247.648438 162.613281 L 246.574219 163.089844 L 245.457031 163.460938 L 244.3125 163.730469 L 243.148438 163.894531 L 241.976562 163.949219 L 215.023438 163.949219 L 213.851562 163.894531 L 212.6875 163.730469 L 211.542969 163.460938 L 210.425781 163.089844 L 209.351562 162.613281 L 208.324219 162.042969 L 207.355469 161.378906 L 206.449219 160.628906 L 205.621094 159.796875 L 204.867188 158.890625 L 204.203125 157.921875 L 203.632812 156.894531 L 203.15625 155.820312 L 202.785156 154.703125 L 202.515625 153.558594 L 202.351562 152.394531 L 202.296875 151.222656 L 202.351562 150.046875 L 202.515625 148.882812 L 202.785156 147.738281 L 203.15625 146.625 L 203.632812 145.550781 L 204.203125 144.523438 L 204.867188 143.550781 L 205.621094 142.648438 L 206.449219 141.816406 L 207.355469 141.066406 L 208.324219 140.402344 L 209.351562 139.828125 L 210.425781 139.355469 L 211.542969 138.980469 L 212.6875 138.710938 L 213.851562 138.550781 Z M 215.023438 138.496094 "/>
<g fill="rgb(0%, 0%, 0%)" fill-opacity="1">
<use xlink:href="#glyph-0-5" x="216" y="153.561523"/>
<use xlink:href="#glyph-0-6" x="221" y="153.561523"/>
<use xlink:href="#glyph-0-7" x="227" y="153.561523"/>
<use xlink:href="#glyph-0-8" x="229" y="153.561523"/>
<use xlink:href="#glyph-0-9" x="235" y="153.561523"/>
</g>
<path fill-rule="nonzero" fill="rgb(100%, 100%, 100%)" fill-opacity="1" stroke-width="0.9375" stroke-linecap="round" stroke-linejoin="round" stroke="rgb(33.333333%, 33.333333%, 33.333333%)" stroke-opacity="1" stroke-miterlimit="10" d="M 37.601562 318.164062 L 65.675781 295.707031 L 121.820312 295.707031 L 149.894531 318.164062 L 121.820312 340.625 L 65.675781 340.625 Z M 37.601562 318.164062 "/>
<g fill="rgb(0%, 0%, 0%)" fill-opacity="1">
<use xlink:href="#glyph-0-10" x="68.246094" y="320.50293"/>
<use xlink:href="#glyph-0-8" x="75.246094" y="320.50293"/>
<use xlink:href="#glyph-0-2" x="81.246094" y="320.50293"/>
<use xlink:href="#glyph-0-11" x="85.246094" y="320.50293"/>
<use xlink:href="#glyph-0-12" x="90.246094" y="320.50293"/>
<use xlink:href="#glyph-0-13" x="95.246094" y="320.50293"/>
<use xlink:href="#glyph-0-9" x="104.246094" y="320.50293"/>
<use xlink:href="#glyph-0-14" x="110.246094" y="320.50293"/>
<use xlink:href="#glyph-0-15" x="113.246094" y="320.50293"/>
</g>
<path fill-rule="nonzero" fill="rgb(100%, 100%, 100%)" fill-opacity="1" stroke-width="0.9375" stroke-linecap="round" stroke-linejoin="round" stroke="rgb(33.333333%, 33.333333%, 33.333333%)" stroke-opacity="1" stroke-miterlimit="10" d="M 172.351562 348.109375 L 200.425781 325.652344 L 256.574219 325.652344 L 284.648438 348.109375 L 256.574219 370.570312 L 200.425781 370.570312 Z M 172.351562 348.109375 "/>
<g fill="rgb(0%, 0%, 0%)" fill-opacity="1">
<use xlink:href="#glyph-0-10" x="203" y="350.448242"/>
<use xlink:href="#glyph-0-8" x="210" y="350.448242"/>
<use xlink:href="#glyph-0-2" x="216" y="350.448242"/>
<use xlink:href="#glyph-0-11" x="220" y="350.448242"/>
<use xlink:href="#glyph-0-12" x="225" y="350.448242"/>
<use xlink:href="#glyph-0-13" x="230" y="350.448242"/>
<use xlink:href="#glyph-0-9" x="239" y="350.448242"/>
<use xlink:href="#glyph-0-14" x="245" y="350.448242"/>
<use xlink:href="#glyph-0-16" x="248" y="350.448242"/>
</g>
<path fill-rule="nonzero" fill="rgb(100%, 100%, 100%)" fill-opacity="1" stroke-width="0.9375" stroke-linecap="round" stroke-linejoin="round" stroke="rgb(33.333333%, 33.333333%, 33.333333%)" stroke-opacity="1" stroke-miterlimit="10" d="M 307.105469 318.164062 L 335.179688 295.707031 L 391.324219 295.707031 L 419.398438 318.164062 L 391.324219 340.625 L 335.179688 340.625 Z M 307.105469 318.164062 "/>
<g fill="rgb(0%, 0%, 0%)" fill-opacity="1">
<use xlink:href="#glyph-0-10" x="337.753906" y="320.50293"/>
<use xlink:href="#glyph-0-8" x="344.753906" y="320.50293"/>
<use xlink:href="#glyph-0-2" x="350.753906" y="320.50293"/>
<use xlink:href="#glyph-0-11" x="354.753906" y="320.50293"/>
<use xlink:href="#glyph-0-12" x="359.753906" y="320.50293"/>
<use xlink:href="#glyph-0-13" x="364.753906" y="320.50293"/>
<use xlink:href="#glyph-0-9" x="373.753906" y="320.50293"/>
<use xlink:href="#glyph-0-14" x="379.753906" y="320.50293"/>
<use xlink:href="#glyph-0-17" x="382.753906" y="320.50293"/>
</g>
<path fill-rule="nonzero" fill="rgb(33.333333%, 33.333333%, 33.333333%)" fill-opacity="1" stroke-width="0.9375" stroke-linecap="round" stroke-linejoin="round" stroke="rgb(33.333333%, 33.333333%, 33.333333%)" stroke-opacity="1" stroke-miterlimit="10" d="M 234.488281 122.773438 L 234.46875 123.25 L 234.414062 123.722656 L 234.320312 124.191406 L 234.1875 124.648438 L 234.023438 125.09375 L 233.820312 125.523438 L 233.585938 125.9375 L 233.316406 126.332031 L 233.019531 126.703125 L 232.691406 127.050781 L 232.339844 127.371094 L 231.960938 127.660156 L 231.5625 127.921875 L 231.144531 128.148438 L 230.710938 128.339844 L 230.261719 128.5 L 229.800781 128.621094 L 229.332031 128.707031 L 228.855469 128.753906 L 228.382812 128.761719 L 227.90625 128.734375 L 227.433594 128.667969 L 226.96875 128.5625 L 226.515625 128.425781 L 226.070312 128.25 L 225.644531 128.039062 L 225.234375 127.796875 L 224.847656 127.519531 L 224.480469 127.214844 L 224.140625 126.882812 L 223.828125 126.523438 L 223.546875 126.136719 L 223.292969 125.734375 L 223.074219 125.3125 L 222.890625 124.871094 L 222.742188 124.421875 L 222.628906 123.957031 L 222.554688 123.488281 L 222.515625 123.011719 L 222.515625 122.535156 L 222.554688 122.0625 L 222.628906 121.589844 L 222.742188 121.128906 L 222.890625 120.675781 L 223.074219 120.238281 L 223.292969 119.8125 L 223.546875 119.410156 L 223.828125 119.027344 L 224.140625 118.667969 L 224.480469 118.335938 L 224.847656 118.027344 L 225.234375 117.753906 L 225.644531 117.511719 L 226.070312 117.300781 L 226.515625 117.125 L 226.96875 116.984375 L 227.433594 116.882812 L 227.90625 116.816406 L 228.382812 116.785156 L 228.855469 116.796875 L 229.332031 116.84375 L 229.800781 116.929688 L 230.261719 117.050781 L 230.710938 117.207031 L 231.144531 117.402344 L 231.5625 117.628906 L 231.960938 117.886719 L 232.339844 118.179688 L 232.691406 118.496094 L 233.019531 118.84375 L 233.316406 119.214844 L 233.585938 119.609375 L 233.820312 120.023438 L 234.023438 120.453125 L 234.1875 120.902344 L 234.320312 121.359375 L 234.414062 121.824219 L 234.46875 122.296875 Z M 234.488281 122.773438 "/>
<path fill-rule="nonzero" fill="rgb(100%, 100%, 100%)" fill-opacity="1" stroke-width="0.75" stroke-linecap="round" stroke-linejoin="round" stroke="rgb(33.333333%, 33.333333%, 33.333333%)" stroke-opacity="1" stroke-miterlimit="10" d="M 232.570312 112.105469 L 228.5 103.964844 L 224.429688 112.105469 Z M 232.570312 112.105469 "/>
<path fill-rule="nonzero" fill="rgb(100%, 100%, 100%)" fill-opacity="1" stroke-width="0.75" stroke-linecap="round" stroke-linejoin="round" stroke="rgb(33.333333%, 33.333333%, 33.333333%)" stroke-opacity="1" stroke-miterlimit="10" d="M 89.675781 289.90625 L 93.746094 298.046875 L 97.816406 289.90625 Z M 89.675781 289.90625 "/>
<path fill-rule="nonzero" fill="rgb(100%, 100%, 100%)" fill-opacity="1" stroke-width="0.75" stroke-linecap="round" stroke-linejoin="round" stroke="rgb(33.333333%, 33.333333%, 33.333333%)" stroke-opacity="1" stroke-miterlimit="10" d="M 89.675781 287.191406 L 89.675781 286.253906 L 97.816406 286.253906 L 97.816406 287.191406 Z M 89.675781 287.191406 "/>
<path fill-rule="nonzero" fill="rgb(100%, 100%, 100%)" fill-opacity="1" stroke-width="0.75" stroke-linecap="round" stroke-linejoin="round" stroke="rgb(33.333333%, 33.333333%, 33.333333%)" stroke-opacity="1" stroke-miterlimit="10" d="M 224.429688 319.847656 L 228.5 327.992188 L 232.570312 319.847656 Z M 224.429688 319.847656 "/>
<path fill="none" stroke-width="0.9375" stroke-linecap="round" stroke-linejoin="round" stroke="rgb(33.333333%, 33.333333%, 33.333333%)" stroke-opacity="1" stroke-miterlimit="10" d="M 366.417969 293.148438 L 360.085938 298.261719 "/>
</svg>
