<?xml version="1.0" encoding="UTF-8"?>
<svg xmlns="http://www.w3.org/2000/svg" xmlns:xlink="http://www.w3.org/1999/xlink" width="1630" height="795" viewBox="0 0 1630 795">
<defs>
<g>
<g id="glyph-0-0">
<path d="M 1.171875 -8.75 L 6.703125 -8.75 L 6.703125 -7.75 L 2.359375 -7.75 L 2.359375 -5.15625 L 6.53125 -5.15625 L 6.53125 -4.171875 L 2.359375 -4.171875 L 2.359375 -1 L 6.8125 -1 L 6.8125 0 L 1.171875 0 Z M 1.171875 -8.75 "/>
</g>
<g id="glyph-0-1">
<path d="M 6.59375 -3.96875 L 6.59375 0 L 5.515625 0 L 5.515625 -3.921875 C 5.515625 -4.546875 5.390625 -5.007812 5.140625 -5.3125 C 4.898438 -5.625 4.539062 -5.78125 4.0625 -5.78125 C 3.476562 -5.78125 3.015625 -5.59375 2.671875 -5.21875 C 2.335938 -4.851562 2.171875 -4.347656 2.171875 -3.703125 L 2.171875 0 L 1.09375 0 L 1.09375 -6.5625 L 2.171875 -6.5625 L 2.171875 -5.546875 C 2.429688 -5.941406 2.734375 -6.234375 3.078125 -6.421875 C 3.429688 -6.617188 3.835938 -6.71875 4.296875 -6.71875 C 5.046875 -6.71875 5.613281 -6.484375 6 -6.015625 C 6.394531 -5.554688 6.59375 -4.875 6.59375 -3.96875 Z M 6.59375 -3.96875 "/>
</g>
<g id="glyph-0-2">
<path d="M 2.203125 -8.421875 L 2.203125 -6.5625 L 4.421875 -6.5625 L 4.421875 -5.71875 L 2.203125 -5.71875 L 2.203125 -2.15625 C 2.203125 -1.625 2.273438 -1.28125 2.421875 -1.125 C 2.566406 -0.976562 2.863281 -0.90625 3.3125 -0.90625 L 4.421875 -0.90625 L 4.421875 0 L 3.3125 0 C 2.476562 0 1.898438 -0.15625 1.578125 -0.46875 C 1.265625 -0.78125 1.109375 -1.34375 1.109375 -2.15625 L 1.109375 -5.71875 L 0.328125 -5.71875 L 0.328125 -6.5625 L 1.109375 -6.5625 L 1.109375 -8.421875 Z M 2.203125 -8.421875 "/>
</g>
<g id="glyph-0-3">
<path d="M 1.125 -6.5625 L 2.203125 -6.5625 L 2.203125 0 L 1.125 0 Z M 1.125 -9.125 L 2.203125 -9.125 L 2.203125 -7.75 L 1.125 -7.75 Z M 1.125 -9.125 "/>
</g>
<g id="glyph-0-4">
<path d="M 3.859375 0.609375 C 3.554688 1.390625 3.257812 1.898438 2.96875 2.140625 C 2.675781 2.378906 2.289062 2.5 1.8125 2.5 L 0.953125 2.5 L 0.953125 1.59375 L 1.578125 1.59375 C 1.878906 1.59375 2.109375 1.519531 2.265625 1.375 C 2.429688 1.238281 2.613281 0.910156 2.8125 0.390625 L 3.015625 -0.109375 L 0.359375 -6.5625 L 1.5 -6.5625 L 3.546875 -1.4375 L 5.609375 -6.5625 L 6.75 -6.5625 Z M 3.859375 0.609375 "/>
</g>
<g id="glyph-0-5">
<path d="M 4.734375 -7.953125 C 3.867188 -7.953125 3.179688 -7.628906 2.671875 -6.984375 C 2.171875 -6.347656 1.921875 -5.472656 1.921875 -4.359375 C 1.921875 -3.265625 2.171875 -2.394531 2.671875 -1.75 C 3.179688 -1.113281 3.867188 -0.796875 4.734375 -0.796875 C 5.585938 -0.796875 6.265625 -1.113281 6.765625 -1.75 C 7.273438 -2.394531 7.53125 -3.265625 7.53125 -4.359375 C 7.53125 -5.472656 7.273438 -6.347656 6.765625 -6.984375 C 6.265625 -7.628906 5.585938 -7.953125 4.734375 -7.953125 Z M 4.734375 -8.90625 C 5.953125 -8.90625 6.925781 -8.492188 7.65625 -7.671875 C 8.394531 -6.847656 8.765625 -5.742188 8.765625 -4.359375 C 8.765625 -2.984375 8.394531 -1.882812 7.65625 -1.0625 C 6.925781 -0.238281 5.953125 0.171875 4.734375 0.171875 C 3.503906 0.171875 2.519531 -0.238281 1.78125 -1.0625 C 1.039062 -1.882812 0.671875 -2.984375 0.671875 -4.359375 C 0.671875 -5.742188 1.039062 -6.847656 1.78125 -7.671875 C 2.519531 -8.492188 3.503906 -8.90625 4.734375 -8.90625 Z M 4.734375 -8.90625 "/>
</g>
<g id="glyph-0-6">
<path d="M 1.015625 -2.59375 L 1.015625 -6.5625 L 2.09375 -6.5625 L 2.09375 -2.625 C 2.09375 -2.007812 2.210938 -1.546875 2.453125 -1.234375 C 2.703125 -0.921875 3.066406 -0.765625 3.546875 -0.765625 C 4.128906 -0.765625 4.585938 -0.945312 4.921875 -1.3125 C 5.265625 -1.6875 5.4375 -2.195312 5.4375 -2.84375 L 5.4375 -6.5625 L 6.515625 -6.5625 L 6.515625 0 L 5.4375 0 L 5.4375 -1.015625 C 5.175781 -0.609375 4.875 -0.304688 4.53125 -0.109375 C 4.1875 0.0742188 3.785156 0.171875 3.328125 0.171875 C 2.566406 0.171875 1.988281 -0.0625 1.59375 -0.53125 C 1.207031 -1 1.015625 -1.6875 1.015625 -2.59375 Z M 3.734375 -6.71875 Z M 3.734375 -6.71875 "/>
</g>
<g id="glyph-0-7">
<path d="M 6.75 -3.546875 L 6.75 -3.03125 L 1.78125 -3.03125 C 1.832031 -2.28125 2.054688 -1.710938 2.453125 -1.328125 C 2.859375 -0.941406 3.414062 -0.75 4.125 -0.75 C 4.539062 -0.75 4.941406 -0.796875 5.328125 -0.890625 C 5.722656 -0.992188 6.113281 -1.148438 6.5 -1.359375 L 6.5 -0.328125 C 6.101562 -0.171875 5.703125 -0.0507812 5.296875 0.03125 C 4.890625 0.125 4.476562 0.171875 4.0625 0.171875 C 3.019531 0.171875 2.191406 -0.128906 1.578125 -0.734375 C 0.960938 -1.347656 0.65625 -2.175781 0.65625 -3.21875 C 0.65625 -4.289062 0.945312 -5.140625 1.53125 -5.765625 C 2.113281 -6.398438 2.894531 -6.71875 3.875 -6.71875 C 4.757812 -6.71875 5.457031 -6.429688 5.96875 -5.859375 C 6.488281 -5.296875 6.75 -4.523438 6.75 -3.546875 Z M 5.671875 -3.875 C 5.660156 -4.457031 5.492188 -4.925781 5.171875 -5.28125 C 4.847656 -5.632812 4.421875 -5.8125 3.890625 -5.8125 C 3.285156 -5.8125 2.800781 -5.640625 2.4375 -5.296875 C 2.082031 -4.953125 1.878906 -4.472656 1.828125 -3.859375 Z M 5.671875 -3.875 "/>
</g>
<g id="glyph-0-8">
<path d="M 4.9375 -5.5625 C 4.8125 -5.625 4.675781 -5.671875 4.53125 -5.703125 C 4.394531 -5.742188 4.238281 -5.765625 4.0625 -5.765625 C 3.457031 -5.765625 2.988281 -5.566406 2.65625 -5.171875 C 2.332031 -4.773438 2.171875 -4.203125 2.171875 -3.453125 L 2.171875 0 L 1.09375 0 L 1.09375 -6.5625 L 2.171875 -6.5625 L 2.171875 -5.546875 C 2.398438 -5.941406 2.695312 -6.234375 3.0625 -6.421875 C 3.425781 -6.617188 3.867188 -6.71875 4.390625 -6.71875 C 4.460938 -6.71875 4.539062 -6.710938 4.625 -6.703125 C 4.71875 -6.691406 4.816406 -6.675781 4.921875 -6.65625 Z M 4.9375 -5.5625 "/>
</g>
<g id="glyph-0-9">
</g>
<g id="glyph-0-10">
<path d="M 1.171875 -8.75 L 2.765625 -8.75 L 6.65625 -1.4375 L 6.65625 -8.75 L 7.796875 -8.75 L 7.796875 0 L 6.203125 0 L 2.328125 -7.3125 L 2.328125 0 L 1.171875 0 Z M 1.171875 -8.75 "/>
</g>
<g id="glyph-0-11">
<path d="M 5.3125 -6.375 L 5.3125 -5.34375 C 5.007812 -5.5 4.691406 -5.613281 4.359375 -5.6875 C 4.035156 -5.769531 3.695312 -5.8125 3.34375 -5.8125 C 2.8125 -5.8125 2.410156 -5.726562 2.140625 -5.5625 C 1.867188 -5.40625 1.734375 -5.160156 1.734375 -4.828125 C 1.734375 -4.578125 1.828125 -4.378906 2.015625 -4.234375 C 2.210938 -4.097656 2.601562 -3.96875 3.1875 -3.84375 L 3.546875 -3.75 C 4.316406 -3.59375 4.863281 -3.363281 5.1875 -3.0625 C 5.507812 -2.757812 5.671875 -2.34375 5.671875 -1.8125 C 5.671875 -1.195312 5.425781 -0.710938 4.9375 -0.359375 C 4.457031 -0.00390625 3.796875 0.171875 2.953125 0.171875 C 2.597656 0.171875 2.226562 0.132812 1.84375 0.0625 C 1.46875 0 1.070312 -0.0976562 0.65625 -0.234375 L 0.65625 -1.359375 C 1.050781 -1.148438 1.441406 -0.992188 1.828125 -0.890625 C 2.210938 -0.785156 2.597656 -0.734375 2.984375 -0.734375 C 3.484375 -0.734375 3.867188 -0.816406 4.140625 -0.984375 C 4.421875 -1.160156 4.5625 -1.410156 4.5625 -1.734375 C 4.5625 -2.023438 4.460938 -2.25 4.265625 -2.40625 C 4.066406 -2.5625 3.632812 -2.710938 2.96875 -2.859375 L 2.59375 -2.9375 C 1.925781 -3.082031 1.441406 -3.300781 1.140625 -3.59375 C 0.847656 -3.882812 0.703125 -4.28125 0.703125 -4.78125 C 0.703125 -5.40625 0.921875 -5.882812 1.359375 -6.21875 C 1.796875 -6.550781 2.414062 -6.71875 3.21875 -6.71875 C 3.613281 -6.71875 3.988281 -6.6875 4.34375 -6.625 C 4.695312 -6.570312 5.019531 -6.488281 5.3125 -6.375 Z M 5.3125 -6.375 "/>
</g>
<g id="glyph-0-12">
<path d="M 5.453125 -5.5625 L 5.453125 -9.125 L 6.53125 -9.125 L 6.53125 0 L 5.453125 0 L 5.453125 -0.984375 C 5.222656 -0.597656 4.9375 -0.304688 4.59375 -0.109375 C 4.25 0.0742188 3.832031 0.171875 3.34375 0.171875 C 2.550781 0.171875 1.90625 -0.144531 1.40625 -0.78125 C 0.90625 -1.414062 0.65625 -2.25 0.65625 -3.28125 C 0.65625 -4.3125 0.90625 -5.140625 1.40625 -5.765625 C 1.90625 -6.398438 2.550781 -6.71875 3.34375 -6.71875 C 3.832031 -6.71875 4.25 -6.625 4.59375 -6.4375 C 4.9375 -6.25 5.222656 -5.957031 5.453125 -5.5625 Z M 1.78125 -3.28125 C 1.78125 -2.488281 1.941406 -1.863281 2.265625 -1.40625 C 2.585938 -0.957031 3.035156 -0.734375 3.609375 -0.734375 C 4.179688 -0.734375 4.628906 -0.957031 4.953125 -1.40625 C 5.285156 -1.863281 5.453125 -2.488281 5.453125 -3.28125 C 5.453125 -4.070312 5.285156 -4.691406 4.953125 -5.140625 C 4.628906 -5.585938 4.179688 -5.8125 3.609375 -5.8125 C 3.035156 -5.8125 2.585938 -5.585938 2.265625 -5.140625 C 1.941406 -4.691406 1.78125 -4.070312 1.78125 -3.28125 Z M 1.78125 -3.28125 "/>
</g>
<g id="glyph-0-13">
<path d="M 2.359375 -7.78125 L 2.359375 -4.484375 L 3.84375 -4.484375 C 4.394531 -4.484375 4.820312 -4.625 5.125 -4.90625 C 5.425781 -5.195312 5.578125 -5.609375 5.578125 -6.140625 C 5.578125 -6.660156 5.425781 -7.0625 5.125 -7.34375 C 4.820312 -7.632812 4.394531 -7.78125 3.84375 -7.78125 Z M 1.171875 -8.75 L 3.84375 -8.75 C 4.832031 -8.75 5.578125 -8.523438 6.078125 -8.078125 C 6.578125 -7.640625 6.828125 -6.992188 6.828125 -6.140625 C 6.828125 -5.273438 6.578125 -4.617188 6.078125 -4.171875 C 5.578125 -3.734375 4.832031 -3.515625 3.84375 -3.515625 L 2.359375 -3.515625 L 2.359375 0 L 1.171875 0 Z M 1.171875 -8.75 "/>
</g>
<g id="glyph-0-14">
<path d="M 5.84375 -3.28125 C 5.84375 -4.070312 5.675781 -4.691406 5.34375 -5.140625 C 5.019531 -5.585938 4.578125 -5.8125 4.015625 -5.8125 C 3.441406 -5.8125 2.988281 -5.585938 2.65625 -5.140625 C 2.332031 -4.691406 2.171875 -4.070312 2.171875 -3.28125 C 2.171875 -2.488281 2.332031 -1.863281 2.65625 -1.40625 C 2.988281 -0.957031 3.441406 -0.734375 4.015625 -0.734375 C 4.578125 -0.734375 5.019531 -0.957031 5.34375 -1.40625 C 5.675781 -1.863281 5.84375 -2.488281 5.84375 -3.28125 Z M 2.171875 -5.5625 C 2.398438 -5.957031 2.6875 -6.25 3.03125 -6.4375 C 3.375 -6.625 3.785156 -6.71875 4.265625 -6.71875 C 5.066406 -6.71875 5.71875 -6.398438 6.21875 -5.765625 C 6.71875 -5.140625 6.96875 -4.3125 6.96875 -3.28125 C 6.96875 -2.25 6.71875 -1.414062 6.21875 -0.78125 C 5.71875 -0.144531 5.066406 0.171875 4.265625 0.171875 C 3.785156 0.171875 3.375 0.0742188 3.03125 -0.109375 C 2.6875 -0.304688 2.398438 -0.597656 2.171875 -0.984375 L 2.171875 0 L 1.09375 0 L 1.09375 -9.125 L 2.171875 -9.125 Z M 2.171875 -5.5625 "/>
</g>
<g id="glyph-0-15">
<path d="M 5.453125 -3.359375 C 5.453125 -4.140625 5.289062 -4.742188 4.96875 -5.171875 C 4.644531 -5.597656 4.191406 -5.8125 3.609375 -5.8125 C 3.035156 -5.8125 2.585938 -5.597656 2.265625 -5.171875 C 1.941406 -4.742188 1.78125 -4.140625 1.78125 -3.359375 C 1.78125 -2.578125 1.941406 -1.972656 2.265625 -1.546875 C 2.585938 -1.117188 3.035156 -0.90625 3.609375 -0.90625 C 4.191406 -0.90625 4.644531 -1.117188 4.96875 -1.546875 C 5.289062 -1.972656 5.453125 -2.578125 5.453125 -3.359375 Z M 6.53125 -0.8125 C 6.53125 0.300781 6.28125 1.128906 5.78125 1.671875 C 5.289062 2.222656 4.53125 2.5 3.5 2.5 C 3.125 2.5 2.765625 2.46875 2.421875 2.40625 C 2.085938 2.351562 1.765625 2.269531 1.453125 2.15625 L 1.453125 1.109375 C 1.765625 1.273438 2.078125 1.398438 2.390625 1.484375 C 2.703125 1.566406 3.015625 1.609375 3.328125 1.609375 C 4.035156 1.609375 4.566406 1.421875 4.921875 1.046875 C 5.273438 0.679688 5.453125 0.121094 5.453125 -0.625 L 5.453125 -1.15625 C 5.222656 -0.769531 4.9375 -0.476562 4.59375 -0.28125 C 4.25 -0.09375 3.832031 0 3.34375 0 C 2.539062 0 1.890625 -0.304688 1.390625 -0.921875 C 0.898438 -1.535156 0.65625 -2.347656 0.65625 -3.359375 C 0.65625 -4.367188 0.898438 -5.179688 1.390625 -5.796875 C 1.890625 -6.410156 2.539062 -6.71875 3.34375 -6.71875 C 3.832031 -6.71875 4.25 -6.617188 4.59375 -6.421875 C 4.9375 -6.234375 5.222656 -5.945312 5.453125 -5.5625 L 5.453125 -6.5625 L 6.53125 -6.5625 Z M 6.53125 -0.8125 "/>
</g>
<g id="glyph-0-16">
<path d="M 4.109375 -3.296875 C 3.242188 -3.296875 2.640625 -3.195312 2.296875 -3 C 1.960938 -2.800781 1.796875 -2.460938 1.796875 -1.984375 C 1.796875 -1.597656 1.921875 -1.289062 2.171875 -1.0625 C 2.429688 -0.84375 2.773438 -0.734375 3.203125 -0.734375 C 3.804688 -0.734375 4.285156 -0.941406 4.640625 -1.359375 C 5.003906 -1.785156 5.1875 -2.351562 5.1875 -3.0625 L 5.1875 -3.296875 Z M 6.265625 -3.75 L 6.265625 0 L 5.1875 0 L 5.1875 -1 C 4.9375 -0.601562 4.628906 -0.304688 4.265625 -0.109375 C 3.898438 0.0742188 3.453125 0.171875 2.921875 0.171875 C 2.242188 0.171875 1.707031 -0.015625 1.3125 -0.390625 C 0.914062 -0.773438 0.71875 -1.28125 0.71875 -1.90625 C 0.71875 -2.644531 0.960938 -3.203125 1.453125 -3.578125 C 1.953125 -3.953125 2.691406 -4.140625 3.671875 -4.140625 L 5.1875 -4.140625 L 5.1875 -4.25 C 5.1875 -4.75 5.019531 -5.132812 4.6875 -5.40625 C 4.363281 -5.675781 3.910156 -5.8125 3.328125 -5.8125 C 2.953125 -5.8125 2.582031 -5.765625 2.21875 -5.671875 C 1.863281 -5.578125 1.523438 -5.441406 1.203125 -5.265625 L 1.203125 -6.265625 C 1.597656 -6.421875 1.976562 -6.535156 2.34375 -6.609375 C 2.71875 -6.679688 3.082031 -6.71875 3.4375 -6.71875 C 4.382812 -6.71875 5.09375 -6.472656 5.5625 -5.984375 C 6.03125 -5.492188 6.265625 -4.75 6.265625 -3.75 Z M 6.265625 -3.75 "/>
</g>
<g id="glyph-0-17">
<path d="M 4.109375 -7.578125 L 2.5 -3.234375 L 5.71875 -3.234375 Z M 3.4375 -8.75 L 4.78125 -8.75 L 8.109375 0 L 6.875 0 L 6.078125 -2.25 L 2.140625 -2.25 L 1.34375 0 L 0.09375 0 Z M 3.4375 -8.75 "/>
</g>
<g id="glyph-0-18">
<path d="M 2.359375 -4.171875 L 2.359375 -0.96875 L 4.265625 -0.96875 C 4.898438 -0.96875 5.367188 -1.097656 5.671875 -1.359375 C 5.984375 -1.628906 6.140625 -2.035156 6.140625 -2.578125 C 6.140625 -3.128906 5.984375 -3.53125 5.671875 -3.78125 C 5.367188 -4.039062 4.898438 -4.171875 4.265625 -4.171875 Z M 2.359375 -7.78125 L 2.359375 -5.140625 L 4.109375 -5.140625 C 4.691406 -5.140625 5.125 -5.25 5.40625 -5.46875 C 5.6875 -5.6875 5.828125 -6.015625 5.828125 -6.453125 C 5.828125 -6.898438 5.6875 -7.234375 5.40625 -7.453125 C 5.125 -7.671875 4.691406 -7.78125 4.109375 -7.78125 Z M 1.171875 -8.75 L 4.203125 -8.75 C 5.109375 -8.75 5.800781 -8.5625 6.28125 -8.1875 C 6.769531 -7.8125 7.015625 -7.28125 7.015625 -6.59375 C 7.015625 -6.050781 6.890625 -5.617188 6.640625 -5.296875 C 6.390625 -4.984375 6.023438 -4.789062 5.546875 -4.71875 C 6.128906 -4.59375 6.582031 -4.332031 6.90625 -3.9375 C 7.226562 -3.539062 7.390625 -3.046875 7.390625 -2.453125 C 7.390625 -1.671875 7.125 -1.066406 6.59375 -0.640625 C 6.0625 -0.210938 5.300781 0 4.3125 0 L 1.171875 0 Z M 1.171875 -8.75 "/>
</g>
<g id="glyph-0-19">
<path d="M 1.046875 -8.75 L 2.234375 -8.75 L 2.234375 -3.4375 C 2.234375 -2.5 2.398438 -1.820312 2.734375 -1.40625 C 3.078125 -1 3.628906 -0.796875 4.390625 -0.796875 C 5.148438 -0.796875 5.695312 -1 6.03125 -1.40625 C 6.375 -1.820312 6.546875 -2.5 6.546875 -3.4375 L 6.546875 -8.75 L 7.734375 -8.75 L 7.734375 -3.28125 C 7.734375 -2.144531 7.453125 -1.285156 6.890625 -0.703125 C 6.328125 -0.117188 5.492188 0.171875 4.390625 0.171875 C 3.285156 0.171875 2.453125 -0.117188 1.890625 -0.703125 C 1.328125 -1.285156 1.046875 -2.144531 1.046875 -3.28125 Z M 1.046875 -8.75 "/>
</g>
<g id="glyph-0-20">
<path d="M 3.671875 -5.8125 C 3.097656 -5.8125 2.640625 -5.582031 2.296875 -5.125 C 1.960938 -4.675781 1.796875 -4.0625 1.796875 -3.28125 C 1.796875 -2.488281 1.960938 -1.867188 2.296875 -1.421875 C 2.628906 -0.972656 3.085938 -0.75 3.671875 -0.75 C 4.242188 -0.75 4.695312 -0.972656 5.03125 -1.421875 C 5.375 -1.878906 5.546875 -2.5 5.546875 -3.28125 C 5.546875 -4.050781 5.375 -4.664062 5.03125 -5.125 C 4.695312 -5.582031 4.242188 -5.8125 3.671875 -5.8125 Z M 3.671875 -6.71875 C 4.609375 -6.71875 5.34375 -6.410156 5.875 -5.796875 C 6.414062 -5.191406 6.6875 -4.351562 6.6875 -3.28125 C 6.6875 -2.207031 6.414062 -1.363281 5.875 -0.75 C 5.34375 -0.132812 4.609375 0.171875 3.671875 0.171875 C 2.734375 0.171875 1.992188 -0.132812 1.453125 -0.75 C 0.921875 -1.363281 0.65625 -2.207031 0.65625 -3.28125 C 0.65625 -4.351562 0.921875 -5.191406 1.453125 -5.796875 C 1.992188 -6.410156 2.734375 -6.71875 3.671875 -6.71875 Z M 3.671875 -6.71875 "/>
</g>
<g id="glyph-0-21">
<path d="M 4.453125 -9.125 L 4.453125 -8.21875 L 3.421875 -8.21875 C 3.035156 -8.21875 2.765625 -8.140625 2.609375 -7.984375 C 2.460938 -7.828125 2.390625 -7.546875 2.390625 -7.140625 L 2.390625 -6.5625 L 4.171875 -6.5625 L 4.171875 -5.71875 L 2.390625 -5.71875 L 2.390625 0 L 1.3125 0 L 1.3125 -5.71875 L 0.28125 -5.71875 L 0.28125 -6.5625 L 1.3125 -6.5625 L 1.3125 -7.015625 C 1.3125 -7.742188 1.476562 -8.273438 1.8125 -8.609375 C 2.15625 -8.953125 2.695312 -9.125 3.4375 -9.125 Z M 4.453125 -9.125 "/>
</g>
<g id="glyph-0-22">
<path d="M 6.234375 -5.296875 C 6.503906 -5.785156 6.828125 -6.144531 7.203125 -6.375 C 7.578125 -6.601562 8.019531 -6.71875 8.53125 -6.71875 C 9.21875 -6.71875 9.742188 -6.476562 10.109375 -6 C 10.484375 -5.519531 10.671875 -4.84375 10.671875 -3.96875 L 10.671875 0 L 9.59375 0 L 9.59375 -3.921875 C 9.59375 -4.554688 9.476562 -5.023438 9.25 -5.328125 C 9.03125 -5.628906 8.691406 -5.78125 8.234375 -5.78125 C 7.671875 -5.78125 7.226562 -5.59375 6.90625 -5.21875 C 6.582031 -4.851562 6.421875 -4.347656 6.421875 -3.703125 L 6.421875 0 L 5.34375 0 L 5.34375 -3.921875 C 5.34375 -4.554688 5.226562 -5.023438 5 -5.328125 C 4.78125 -5.628906 4.4375 -5.78125 3.96875 -5.78125 C 3.414062 -5.78125 2.976562 -5.59375 2.65625 -5.21875 C 2.332031 -4.851562 2.171875 -4.347656 2.171875 -3.703125 L 2.171875 0 L 1.09375 0 L 1.09375 -6.5625 L 2.171875 -6.5625 L 2.171875 -5.546875 C 2.421875 -5.941406 2.71875 -6.234375 3.0625 -6.421875 C 3.40625 -6.617188 3.8125 -6.71875 4.28125 -6.71875 C 4.757812 -6.71875 5.164062 -6.597656 5.5 -6.359375 C 5.832031 -6.117188 6.078125 -5.765625 6.234375 -5.296875 Z M 6.234375 -5.296875 "/>
</g>
<g id="glyph-0-23">
<path d="M 6.421875 -8.46875 L 6.421875 -7.3125 C 5.972656 -7.519531 5.546875 -7.675781 5.140625 -7.78125 C 4.742188 -7.894531 4.363281 -7.953125 4 -7.953125 C 3.351562 -7.953125 2.851562 -7.828125 2.5 -7.578125 C 2.15625 -7.328125 1.984375 -6.96875 1.984375 -6.5 C 1.984375 -6.113281 2.097656 -5.820312 2.328125 -5.625 C 2.554688 -5.425781 3 -5.269531 3.65625 -5.15625 L 4.359375 -5 C 5.242188 -4.832031 5.894531 -4.535156 6.3125 -4.109375 C 6.738281 -3.691406 6.953125 -3.128906 6.953125 -2.421875 C 6.953125 -1.566406 6.664062 -0.921875 6.09375 -0.484375 C 5.53125 -0.046875 4.695312 0.171875 3.59375 0.171875 C 3.1875 0.171875 2.75 0.125 2.28125 0.03125 C 1.8125 -0.0585938 1.328125 -0.203125 0.828125 -0.390625 L 0.828125 -1.609375 C 1.304688 -1.335938 1.773438 -1.132812 2.234375 -1 C 2.703125 -0.863281 3.15625 -0.796875 3.59375 -0.796875 C 4.269531 -0.796875 4.789062 -0.925781 5.15625 -1.1875 C 5.53125 -1.457031 5.71875 -1.835938 5.71875 -2.328125 C 5.71875 -2.753906 5.582031 -3.085938 5.3125 -3.328125 C 5.050781 -3.578125 4.617188 -3.757812 4.015625 -3.875 L 3.296875 -4.015625 C 2.410156 -4.191406 1.769531 -4.46875 1.375 -4.84375 C 0.988281 -5.21875 0.796875 -5.738281 0.796875 -6.40625 C 0.796875 -7.1875 1.066406 -7.796875 1.609375 -8.234375 C 2.148438 -8.679688 2.898438 -8.90625 3.859375 -8.90625 C 4.273438 -8.90625 4.691406 -8.867188 5.109375 -8.796875 C 5.535156 -8.722656 5.972656 -8.613281 6.421875 -8.46875 Z M 6.421875 -8.46875 "/>
</g>
<g id="glyph-0-24">
<path d="M 0.359375 -6.5625 L 1.5 -6.5625 L 3.546875 -1.0625 L 5.609375 -6.5625 L 6.75 -6.5625 L 4.28125 0 L 2.8125 0 Z M 0.359375 -6.5625 "/>
</g>
<g id="glyph-0-25">
<path d="M 1.125 -9.125 L 2.203125 -9.125 L 2.203125 0 L 1.125 0 Z M 1.125 -9.125 "/>
</g>
<g id="glyph-0-26">
<path d="M 6.59375 -6.5625 L 4.21875 -3.375 L 6.703125 0 L 5.4375 0 L 3.53125 -2.578125 L 1.625 0 L 0.34375 0 L 2.890625 -3.4375 L 0.5625 -6.5625 L 1.828125 -6.5625 L 3.578125 -4.21875 L 5.3125 -6.5625 Z M 6.59375 -6.5625 "/>
</g>
<g id="glyph-0-27">
<path d="M 5.859375 -6.3125 L 5.859375 -5.296875 C 5.546875 -5.472656 5.238281 -5.601562 4.9375 -5.6875 C 4.632812 -5.769531 4.328125 -5.8125 4.015625 -5.8125 C 3.304688 -5.8125 2.757812 -5.585938 2.375 -5.140625 C 1.988281 -4.703125 1.796875 -4.082031 1.796875 -3.28125 C 1.796875 -2.476562 1.988281 -1.851562 2.375 -1.40625 C 2.757812 -0.96875 3.304688 -0.75 4.015625 -0.75 C 4.328125 -0.75 4.632812 -0.789062 4.9375 -0.875 C 5.238281 -0.957031 5.546875 -1.082031 5.859375 -1.25 L 5.859375 -0.25 C 5.554688 -0.113281 5.242188 -0.0078125 4.921875 0.0625 C 4.597656 0.132812 4.253906 0.171875 3.890625 0.171875 C 2.898438 0.171875 2.113281 -0.132812 1.53125 -0.75 C 0.945312 -1.375 0.65625 -2.21875 0.65625 -3.28125 C 0.65625 -4.34375 0.945312 -5.179688 1.53125 -5.796875 C 2.125 -6.410156 2.9375 -6.71875 3.96875 -6.71875 C 4.289062 -6.71875 4.609375 -6.679688 4.921875 -6.609375 C 5.242188 -6.546875 5.554688 -6.445312 5.859375 -6.3125 Z M 5.859375 -6.3125 "/>
</g>
<g id="glyph-0-28">
<path d="M 1.171875 -8.75 L 2.359375 -8.75 L 2.359375 -1 L 6.625 -1 L 6.625 0 L 1.171875 0 Z M 1.171875 -8.75 "/>
</g>
<g id="glyph-0-29">
<path d="M 3.4375 0 L 0.09375 -8.75 L 1.328125 -8.75 L 4.109375 -1.390625 L 6.875 -8.75 L 8.109375 -8.75 L 4.78125 0 Z M 3.4375 0 "/>
</g>
<g id="glyph-0-30">
<path d="M 2.359375 -7.78125 L 2.359375 -0.96875 L 3.796875 -0.96875 C 5.003906 -0.96875 5.882812 -1.238281 6.4375 -1.78125 C 7 -2.332031 7.28125 -3.203125 7.28125 -4.390625 C 7.28125 -5.554688 7 -6.410156 6.4375 -6.953125 C 5.882812 -7.503906 5.003906 -7.78125 3.796875 -7.78125 Z M 1.171875 -8.75 L 3.609375 -8.75 C 5.304688 -8.75 6.550781 -8.394531 7.34375 -7.6875 C 8.132812 -6.988281 8.53125 -5.890625 8.53125 -4.390625 C 8.53125 -2.878906 8.128906 -1.769531 7.328125 -1.0625 C 6.535156 -0.351562 5.296875 0 3.609375 0 L 1.171875 0 Z M 1.171875 -8.75 "/>
</g>
<g id="glyph-0-31">
<path d="M 5.328125 -4.109375 C 5.578125 -4.015625 5.820312 -3.828125 6.0625 -3.546875 C 6.300781 -3.265625 6.546875 -2.878906 6.796875 -2.390625 L 8 0 L 6.71875 0 L 5.609375 -2.25 C 5.316406 -2.832031 5.035156 -3.21875 4.765625 -3.40625 C 4.492188 -3.601562 4.125 -3.703125 3.65625 -3.703125 L 2.359375 -3.703125 L 2.359375 0 L 1.171875 0 L 1.171875 -8.75 L 3.84375 -8.75 C 4.84375 -8.75 5.585938 -8.539062 6.078125 -8.125 C 6.578125 -7.707031 6.828125 -7.078125 6.828125 -6.234375 C 6.828125 -5.679688 6.695312 -5.222656 6.4375 -4.859375 C 6.1875 -4.492188 5.816406 -4.242188 5.328125 -4.109375 Z M 2.359375 -7.78125 L 2.359375 -4.671875 L 3.84375 -4.671875 C 4.414062 -4.671875 4.847656 -4.800781 5.140625 -5.0625 C 5.429688 -5.332031 5.578125 -5.722656 5.578125 -6.234375 C 5.578125 -6.742188 5.429688 -7.128906 5.140625 -7.390625 C 4.847656 -7.648438 4.414062 -7.78125 3.84375 -7.78125 Z M 2.359375 -7.78125 "/>
</g>
<g id="glyph-0-32">
<path d="M -0.03125 -8.75 L 7.359375 -8.75 L 7.359375 -7.75 L 4.265625 -7.75 L 4.265625 0 L 3.078125 0 L 3.078125 -7.75 L -0.03125 -7.75 Z M -0.03125 -8.75 "/>
</g>
<g id="glyph-0-33">
<path d="M 4.34375 -1.203125 C 4.488281 -1.015625 4.769531 -0.921875 5.1875 -0.921875 L 5.71875 -0.921875 L 5.71875 0 L 5.0625 0 C 4.363281 0 3.851562 -0.1875 3.53125 -0.5625 C 3.207031 -0.945312 3.046875 -1.550781 3.046875 -2.375 L 3.046875 -5.484375 L 0.59375 -5.484375 L 0.59375 -6.5625 L 6.640625 -6.5625 L 6.640625 -5.484375 L 4.15625 -5.484375 L 4.15625 -2.3125 C 4.15625 -1.75 4.21875 -1.378906 4.34375 -1.203125 Z M 4.34375 -1.203125 "/>
</g>
<g id="glyph-0-34">
<path d="M 1.171875 -8.75 L 2.359375 -8.75 L 2.359375 0 L 1.171875 0 Z M 1.171875 -8.75 "/>
</g>
<g id="glyph-0-35">
<path d="M 7.734375 -8.078125 L 7.734375 -6.828125 C 7.328125 -7.203125 6.898438 -7.476562 6.453125 -7.65625 C 6.003906 -7.84375 5.523438 -7.9375 5.015625 -7.9375 C 4.015625 -7.9375 3.25 -7.628906 2.71875 -7.015625 C 2.1875 -6.398438 1.921875 -5.515625 1.921875 -4.359375 C 1.921875 -3.210938 2.1875 -2.332031 2.71875 -1.71875 C 3.25 -1.101562 4.015625 -0.796875 5.015625 -0.796875 C 5.523438 -0.796875 6.003906 -0.890625 6.453125 -1.078125 C 6.898438 -1.265625 7.328125 -1.539062 7.734375 -1.90625 L 7.734375 -0.671875 C 7.316406 -0.390625 6.875 -0.175781 6.40625 -0.03125 C 5.945312 0.101562 5.460938 0.171875 4.953125 0.171875 C 3.617188 0.171875 2.570312 -0.234375 1.8125 -1.046875 C 1.050781 -1.859375 0.671875 -2.960938 0.671875 -4.359375 C 0.671875 -5.765625 1.050781 -6.875 1.8125 -7.6875 C 2.570312 -8.5 3.617188 -8.90625 4.953125 -8.90625 C 5.472656 -8.90625 5.960938 -8.832031 6.421875 -8.6875 C 6.890625 -8.550781 7.328125 -8.347656 7.734375 -8.078125 Z M 7.734375 -8.078125 "/>
</g>
<g id="glyph-0-36">
<path d="M 6.59375 -3.96875 L 6.59375 0 L 5.515625 0 L 5.515625 -3.921875 C 5.515625 -4.546875 5.390625 -5.007812 5.140625 -5.3125 C 4.898438 -5.625 4.539062 -5.78125 4.0625 -5.78125 C 3.476562 -5.78125 3.015625 -5.59375 2.671875 -5.21875 C 2.335938 -4.851562 2.171875 -4.347656 2.171875 -3.703125 L 2.171875 0 L 1.09375 0 L 1.09375 -9.125 L 2.171875 -9.125 L 2.171875 -5.546875 C 2.429688 -5.941406 2.734375 -6.234375 3.078125 -6.421875 C 3.429688 -6.617188 3.835938 -6.71875 4.296875 -6.71875 C 5.046875 -6.71875 5.613281 -6.484375 6 -6.015625 C 6.394531 -5.554688 6.59375 -4.875 6.59375 -3.96875 Z M 6.59375 -3.96875 "/>
</g>
<g id="glyph-0-37">
<path d="M 2.171875 -0.984375 L 2.171875 2.5 L 1.09375 2.5 L 1.09375 -6.5625 L 2.171875 -6.5625 L 2.171875 -5.5625 C 2.398438 -5.957031 2.6875 -6.25 3.03125 -6.4375 C 3.375 -6.625 3.785156 -6.71875 4.265625 -6.71875 C 5.066406 -6.71875 5.71875 -6.398438 6.21875 -5.765625 C 6.71875 -5.140625 6.96875 -4.3125 6.96875 -3.28125 C 6.96875 -2.25 6.71875 -1.414062 6.21875 -0.78125 C 5.71875 -0.144531 5.066406 0.171875 4.265625 0.171875 C 3.785156 0.171875 3.375 0.0742188 3.03125 -0.109375 C 2.6875 -0.304688 2.398438 -0.597656 2.171875 -0.984375 Z M 5.84375 -3.28125 C 5.84375 -4.070312 5.675781 -4.691406 5.34375 -5.140625 C 5.019531 -5.585938 4.578125 -5.8125 4.015625 -5.8125 C 3.441406 -5.8125 2.988281 -5.585938 2.65625 -5.140625 C 2.332031 -4.691406 2.171875 -4.070312 2.171875 -3.28125 C 2.171875 -2.488281 2.332031 -1.863281 2.65625 -1.40625 C 2.988281 -0.957031 3.441406 -0.734375 4.015625 -0.734375 C 4.578125 -0.734375 5.019531 -0.957031 5.34375 -1.40625 C 5.675781 -1.863281 5.84375 -2.488281 5.84375 -3.28125 Z M 5.84375 -3.28125 "/>
</g>
<g id="glyph-0-38">
<path d="M 1.171875 -8.75 L 2.9375 -8.75 L 5.171875 -2.796875 L 7.421875 -8.75 L 9.1875 -8.75 L 9.1875 0 L 8.03125 0 L 8.03125 -7.6875 L 5.765625 -1.6875 L 4.578125 -1.6875 L 2.328125 -7.6875 L 2.328125 0 L 1.171875 0 Z M 1.171875 -8.75 "/>
</g>
<g id="glyph-1-0">
<path d="M 1.453125 -0.65625 L 1.453125 1.671875 L 0.734375 1.671875 L 0.734375 -4.375 L 1.453125 -4.375 L 1.453125 -3.71875 C 1.597656 -3.976562 1.785156 -4.171875 2.015625 -4.296875 C 2.253906 -4.421875 2.53125 -4.484375 2.84375 -4.484375 C 3.375 -4.484375 3.804688 -4.269531 4.140625 -3.84375 C 4.472656 -3.425781 4.640625 -2.875 4.640625 -2.1875 C 4.640625 -1.5 4.472656 -0.941406 4.140625 -0.515625 C 3.804688 -0.0976562 3.375 0.109375 2.84375 0.109375 C 2.53125 0.109375 2.253906 0.0429688 2.015625 -0.078125 C 1.785156 -0.203125 1.597656 -0.394531 1.453125 -0.65625 Z M 3.890625 -2.1875 C 3.890625 -2.71875 3.78125 -3.128906 3.5625 -3.421875 C 3.351562 -3.722656 3.054688 -3.875 2.671875 -3.875 C 2.296875 -3.875 2 -3.722656 1.78125 -3.421875 C 1.5625 -3.128906 1.453125 -2.71875 1.453125 -2.1875 C 1.453125 -1.65625 1.5625 -1.238281 1.78125 -0.9375 C 2 -0.632812 2.296875 -0.484375 2.671875 -0.484375 C 3.054688 -0.484375 3.351562 -0.632812 3.5625 -0.9375 C 3.78125 -1.238281 3.890625 -1.65625 3.890625 -2.1875 Z M 3.890625 -2.1875 "/>
</g>
<g id="glyph-1-1">
<path d="M 3.296875 -3.703125 C 3.210938 -3.753906 3.125 -3.789062 3.03125 -3.8125 C 2.9375 -3.832031 2.832031 -3.84375 2.71875 -3.84375 C 2.3125 -3.84375 2 -3.707031 1.78125 -3.4375 C 1.5625 -3.175781 1.453125 -2.800781 1.453125 -2.3125 L 1.453125 0 L 0.734375 0 L 0.734375 -4.375 L 1.453125 -4.375 L 1.453125 -3.703125 C 1.597656 -3.960938 1.789062 -4.15625 2.03125 -4.28125 C 2.28125 -4.414062 2.578125 -4.484375 2.921875 -4.484375 C 2.972656 -4.484375 3.023438 -4.476562 3.078125 -4.46875 C 3.140625 -4.46875 3.207031 -4.457031 3.28125 -4.4375 Z M 3.296875 -3.703125 "/>
</g>
<g id="glyph-1-2">
<path d="M 4.5 -2.375 L 4.5 -2.015625 L 1.1875 -2.015625 C 1.21875 -1.523438 1.367188 -1.148438 1.640625 -0.890625 C 1.910156 -0.628906 2.28125 -0.5 2.75 -0.5 C 3.03125 -0.5 3.300781 -0.53125 3.5625 -0.59375 C 3.820312 -0.664062 4.078125 -0.769531 4.328125 -0.90625 L 4.328125 -0.21875 C 4.066406 -0.113281 3.800781 -0.0351562 3.53125 0.015625 C 3.257812 0.078125 2.988281 0.109375 2.71875 0.109375 C 2.019531 0.109375 1.460938 -0.09375 1.046875 -0.5 C 0.640625 -0.90625 0.4375 -1.453125 0.4375 -2.140625 C 0.4375 -2.859375 0.628906 -3.425781 1.015625 -3.84375 C 1.410156 -4.269531 1.9375 -4.484375 2.59375 -4.484375 C 3.175781 -4.484375 3.640625 -4.289062 3.984375 -3.90625 C 4.328125 -3.53125 4.5 -3.019531 4.5 -2.375 Z M 3.78125 -2.578125 C 3.769531 -2.972656 3.65625 -3.285156 3.4375 -3.515625 C 3.226562 -3.753906 2.945312 -3.875 2.59375 -3.875 C 2.195312 -3.875 1.875 -3.757812 1.625 -3.53125 C 1.382812 -3.300781 1.25 -2.984375 1.21875 -2.578125 Z M 3.78125 -2.578125 "/>
</g>
<g id="glyph-1-3">
<path d="M 0.9375 -1 L 1.765625 -1 L 1.765625 0 L 0.9375 0 Z M 0.9375 -4.140625 L 1.765625 -4.140625 L 1.765625 -3.140625 L 0.9375 -3.140625 Z M 0.9375 -4.140625 "/>
</g>
<g id="glyph-1-4">
<path d="M 0.75 -6.078125 L 1.46875 -6.078125 L 1.46875 0 L 0.75 0 Z M 0.75 -6.078125 "/>
</g>
<g id="glyph-1-5">
<path d="M 2.75 -2.203125 C 2.164062 -2.203125 1.757812 -2.132812 1.53125 -2 C 1.3125 -1.863281 1.203125 -1.640625 1.203125 -1.328125 C 1.203125 -1.066406 1.285156 -0.859375 1.453125 -0.703125 C 1.617188 -0.554688 1.847656 -0.484375 2.140625 -0.484375 C 2.535156 -0.484375 2.851562 -0.625 3.09375 -0.90625 C 3.332031 -1.195312 3.453125 -1.578125 3.453125 -2.046875 L 3.453125 -2.203125 Z M 4.171875 -2.5 L 4.171875 0 L 3.453125 0 L 3.453125 -0.671875 C 3.296875 -0.398438 3.09375 -0.203125 2.84375 -0.078125 C 2.601562 0.0429688 2.304688 0.109375 1.953125 0.109375 C 1.503906 0.109375 1.144531 -0.015625 0.875 -0.265625 C 0.613281 -0.515625 0.484375 -0.851562 0.484375 -1.28125 C 0.484375 -1.769531 0.644531 -2.140625 0.96875 -2.390625 C 1.300781 -2.640625 1.796875 -2.765625 2.453125 -2.765625 L 3.453125 -2.765625 L 3.453125 -2.828125 C 3.453125 -3.160156 3.34375 -3.414062 3.125 -3.59375 C 2.914062 -3.78125 2.613281 -3.875 2.21875 -3.875 C 1.96875 -3.875 1.722656 -3.84375 1.484375 -3.78125 C 1.242188 -3.71875 1.015625 -3.628906 0.796875 -3.515625 L 0.796875 -4.171875 C 1.066406 -4.273438 1.320312 -4.351562 1.5625 -4.40625 C 1.8125 -4.457031 2.054688 -4.484375 2.296875 -4.484375 C 2.921875 -4.484375 3.390625 -4.316406 3.703125 -3.984375 C 4.015625 -3.660156 4.171875 -3.164062 4.171875 -2.5 Z M 4.171875 -2.5 "/>
</g>
<g id="glyph-1-6">
<path d="M 3.890625 -2.1875 C 3.890625 -2.71875 3.78125 -3.128906 3.5625 -3.421875 C 3.351562 -3.722656 3.054688 -3.875 2.671875 -3.875 C 2.296875 -3.875 2 -3.722656 1.78125 -3.421875 C 1.5625 -3.128906 1.453125 -2.71875 1.453125 -2.1875 C 1.453125 -1.65625 1.5625 -1.238281 1.78125 -0.9375 C 2 -0.632812 2.296875 -0.484375 2.671875 -0.484375 C 3.054688 -0.484375 3.351562 -0.632812 3.5625 -0.9375 C 3.78125 -1.238281 3.890625 -1.65625 3.890625 -2.1875 Z M 1.453125 -3.71875 C 1.597656 -3.976562 1.785156 -4.171875 2.015625 -4.296875 C 2.253906 -4.421875 2.53125 -4.484375 2.84375 -4.484375 C 3.375 -4.484375 3.804688 -4.269531 4.140625 -3.84375 C 4.472656 -3.425781 4.640625 -2.875 4.640625 -2.1875 C 4.640625 -1.5 4.472656 -0.941406 4.140625 -0.515625 C 3.804688 -0.0976562 3.375 0.109375 2.84375 0.109375 C 2.53125 0.109375 2.253906 0.0429688 2.015625 -0.078125 C 1.785156 -0.203125 1.597656 -0.394531 1.453125 -0.65625 L 1.453125 0 L 0.734375 0 L 0.734375 -6.078125 L 1.453125 -6.078125 Z M 1.453125 -3.71875 "/>
</g>
<g id="glyph-1-7">
<path d="M 0.234375 -4.375 L 1 -4.375 L 2.375 -0.703125 L 3.734375 -4.375 L 4.5 -4.375 L 2.859375 0 L 1.875 0 Z M 0.234375 -4.375 "/>
</g>
<g id="glyph-1-8">
<path d="M 0.6875 -1.734375 L 0.6875 -4.375 L 1.40625 -4.375 L 1.40625 -1.75 C 1.40625 -1.34375 1.484375 -1.035156 1.640625 -0.828125 C 1.804688 -0.617188 2.050781 -0.515625 2.375 -0.515625 C 2.757812 -0.515625 3.0625 -0.632812 3.28125 -0.875 C 3.507812 -1.125 3.625 -1.460938 3.625 -1.890625 L 3.625 -4.375 L 4.34375 -4.375 L 4.34375 0 L 3.625 0 L 3.625 -0.671875 C 3.445312 -0.410156 3.242188 -0.210938 3.015625 -0.078125 C 2.785156 0.0429688 2.519531 0.109375 2.21875 0.109375 C 1.71875 0.109375 1.335938 -0.046875 1.078125 -0.359375 C 0.816406 -0.671875 0.6875 -1.128906 0.6875 -1.734375 Z M 2.484375 -4.484375 Z M 2.484375 -4.484375 "/>
</g>
<g id="glyph-1-9">
<path d="M 2.984375 -2.09375 C 2.984375 -1.726562 3.070312 -1.4375 3.25 -1.21875 C 3.4375 -1.007812 3.691406 -0.90625 4.015625 -0.90625 C 4.335938 -0.90625 4.585938 -1.007812 4.765625 -1.21875 C 4.953125 -1.4375 5.046875 -1.726562 5.046875 -2.09375 C 5.046875 -2.457031 4.953125 -2.75 4.765625 -2.96875 C 4.578125 -3.1875 4.328125 -3.296875 4.015625 -3.296875 C 3.691406 -3.296875 3.4375 -3.1875 3.25 -2.96875 C 3.070312 -2.757812 2.984375 -2.46875 2.984375 -2.09375 Z M 5.109375 -0.9375 C 4.953125 -0.726562 4.769531 -0.578125 4.5625 -0.484375 C 4.363281 -0.390625 4.128906 -0.34375 3.859375 -0.34375 C 3.410156 -0.34375 3.046875 -0.503906 2.765625 -0.828125 C 2.492188 -1.148438 2.359375 -1.570312 2.359375 -2.09375 C 2.359375 -2.613281 2.5 -3.035156 2.78125 -3.359375 C 3.0625 -3.691406 3.421875 -3.859375 3.859375 -3.859375 C 4.128906 -3.859375 4.363281 -3.804688 4.5625 -3.703125 C 4.769531 -3.609375 4.953125 -3.460938 5.109375 -3.265625 L 5.109375 -3.78125 L 5.671875 -3.78125 L 5.671875 -0.90625 C 6.046875 -0.957031 6.335938 -1.128906 6.546875 -1.421875 C 6.765625 -1.710938 6.875 -2.085938 6.875 -2.546875 C 6.875 -2.828125 6.832031 -3.085938 6.75 -3.328125 C 6.675781 -3.578125 6.554688 -3.804688 6.390625 -4.015625 C 6.117188 -4.359375 5.785156 -4.617188 5.390625 -4.796875 C 5.003906 -4.984375 4.582031 -5.078125 4.125 -5.078125 C 3.800781 -5.078125 3.492188 -5.03125 3.203125 -4.9375 C 2.910156 -4.851562 2.640625 -4.726562 2.390625 -4.5625 C 1.972656 -4.300781 1.648438 -3.953125 1.421875 -3.515625 C 1.191406 -3.085938 1.078125 -2.625 1.078125 -2.125 C 1.078125 -1.707031 1.148438 -1.316406 1.296875 -0.953125 C 1.453125 -0.597656 1.671875 -0.28125 1.953125 0 C 2.222656 0.269531 2.535156 0.472656 2.890625 0.609375 C 3.253906 0.753906 3.644531 0.828125 4.0625 0.828125 C 4.394531 0.828125 4.722656 0.769531 5.046875 0.65625 C 5.367188 0.550781 5.664062 0.390625 5.9375 0.171875 L 6.296875 0.609375 C 5.960938 0.859375 5.601562 1.050781 5.21875 1.1875 C 4.84375 1.320312 4.457031 1.390625 4.0625 1.390625 C 3.570312 1.390625 3.113281 1.300781 2.6875 1.125 C 2.257812 0.957031 1.878906 0.710938 1.546875 0.390625 C 1.210938 0.0664062 0.957031 -0.304688 0.78125 -0.734375 C 0.613281 -1.171875 0.53125 -1.632812 0.53125 -2.125 C 0.53125 -2.59375 0.617188 -3.039062 0.796875 -3.46875 C 0.972656 -3.90625 1.222656 -4.285156 1.546875 -4.609375 C 1.890625 -4.941406 2.28125 -5.195312 2.71875 -5.375 C 3.15625 -5.550781 3.617188 -5.640625 4.109375 -5.640625 C 4.660156 -5.640625 5.171875 -5.523438 5.640625 -5.296875 C 6.117188 -5.066406 6.519531 -4.742188 6.84375 -4.328125 C 7.039062 -4.078125 7.1875 -3.800781 7.28125 -3.5 C 7.382812 -3.195312 7.4375 -2.882812 7.4375 -2.5625 C 7.4375 -1.882812 7.226562 -1.347656 6.8125 -0.953125 C 6.40625 -0.554688 5.835938 -0.347656 5.109375 -0.328125 Z M 5.109375 -0.9375 "/>
</g>
<g id="glyph-1-10">
<path d="M 0.75 -4.375 L 1.46875 -4.375 L 1.46875 0 L 0.75 0 Z M 0.75 -6.078125 L 1.46875 -6.078125 L 1.46875 -5.171875 L 0.75 -5.171875 Z M 0.75 -6.078125 "/>
</g>
<g id="glyph-1-11">
<path d="M 3.546875 -4.25 L 3.546875 -3.5625 C 3.335938 -3.664062 3.125 -3.742188 2.90625 -3.796875 C 2.6875 -3.847656 2.460938 -3.875 2.234375 -3.875 C 1.878906 -3.875 1.609375 -3.816406 1.421875 -3.703125 C 1.242188 -3.597656 1.15625 -3.4375 1.15625 -3.21875 C 1.15625 -3.050781 1.21875 -2.921875 1.34375 -2.828125 C 1.476562 -2.734375 1.738281 -2.644531 2.125 -2.5625 L 2.375 -2.5 C 2.882812 -2.394531 3.242188 -2.242188 3.453125 -2.046875 C 3.671875 -1.847656 3.78125 -1.566406 3.78125 -1.203125 C 3.78125 -0.796875 3.617188 -0.472656 3.296875 -0.234375 C 2.972656 -0.00390625 2.53125 0.109375 1.96875 0.109375 C 1.738281 0.109375 1.492188 0.0820312 1.234375 0.03125 C 0.984375 -0.0078125 0.71875 -0.0703125 0.4375 -0.15625 L 0.4375 -0.90625 C 0.695312 -0.769531 0.957031 -0.664062 1.21875 -0.59375 C 1.476562 -0.519531 1.734375 -0.484375 1.984375 -0.484375 C 2.328125 -0.484375 2.585938 -0.539062 2.765625 -0.65625 C 2.953125 -0.78125 3.046875 -0.945312 3.046875 -1.15625 C 3.046875 -1.351562 2.976562 -1.503906 2.84375 -1.609375 C 2.707031 -1.710938 2.421875 -1.8125 1.984375 -1.90625 L 1.734375 -1.96875 C 1.285156 -2.0625 0.960938 -2.203125 0.765625 -2.390625 C 0.566406 -2.585938 0.46875 -2.851562 0.46875 -3.1875 C 0.46875 -3.601562 0.613281 -3.921875 0.90625 -4.140625 C 1.195312 -4.367188 1.609375 -4.484375 2.140625 -4.484375 C 2.410156 -4.484375 2.660156 -4.460938 2.890625 -4.421875 C 3.128906 -4.378906 3.347656 -4.320312 3.546875 -4.25 Z M 3.546875 -4.25 "/>
</g>
<g id="glyph-1-12">
<path d="M 1.46875 -5.625 L 1.46875 -4.375 L 2.953125 -4.375 L 2.953125 -3.8125 L 1.46875 -3.8125 L 1.46875 -1.4375 C 1.46875 -1.082031 1.515625 -0.851562 1.609375 -0.75 C 1.710938 -0.65625 1.910156 -0.609375 2.203125 -0.609375 L 2.953125 -0.609375 L 2.953125 0 L 2.203125 0 C 1.648438 0 1.269531 -0.101562 1.0625 -0.3125 C 0.851562 -0.519531 0.75 -0.894531 0.75 -1.4375 L 0.75 -3.8125 L 0.21875 -3.8125 L 0.21875 -4.375 L 0.75 -4.375 L 0.75 -5.625 Z M 1.46875 -5.625 "/>
</g>
<g id="glyph-2-0">
<path d="M 0.890625 -6.5625 L 2.078125 -6.5625 L 4.984375 -1.078125 L 4.984375 -6.5625 L 5.84375 -6.5625 L 5.84375 0 L 4.65625 0 L 1.75 -5.484375 L 1.75 0 L 0.890625 0 Z M 0.890625 -6.5625 "/>
</g>
</g>
<clipPath id="clip-0">
<path clip-rule="nonzero" d="M 477 268 L 489 268 L 489 292 L 477 292 Z M 477 268 "/>
</clipPath>
<clipPath id="clip-1">
<path clip-rule="nonzero" d="M 489 280 C 489 286.628906 483.628906 292 477 292 C 470.371094 292 465 286.628906 465 280 C 465 273.371094 470.371094 268 477 268 C 483.628906 268 489 273.371094 489 280 "/>
</clipPath>
</defs>
<rect x="-163" y="-79.5" width="1956" height="954" fill="rgb(100%, 100%, 100%)" fill-opacity="1"/>
<path fill="none" stroke-width="1.25" stroke-linecap="square" stroke-linejoin="miter" stroke="rgb(0%, 0%, 0%)" stroke-opacity="1" stroke-miterlimit="10" d="M 170 485 L 270 485 "/>
<path fill="none" stroke-width="1.25" stroke-linecap="square" stroke-linejoin="miter" stroke="rgb(0%, 0%, 0%)" stroke-opacity="1" stroke-miterlimit="10" d="M 725 385 L 780 385 "/>
<path fill="none" stroke-width="1.25" stroke-linecap="square" stroke-linejoin="miter" stroke="rgb(0%, 0%, 0%)" stroke-opacity="1" stroke-miterlimit="10" d="M 1340 75 L 1460 75 "/>
<path fill="none" stroke-width="1.25" stroke-linecap="square" stroke-linejoin="miter" stroke="rgb(0%, 0%, 0%)" stroke-opacity="1" stroke-miterlimit="10" d="M 1340 165 L 1460 165 "/>
<path fill="none" stroke-width="1.25" stroke-linecap="square" stroke-linejoin="miter" stroke="rgb(0%, 0%, 0%)" stroke-opacity="1" stroke-miterlimit="10" d="M 1340 255 L 1460 255 "/>
<path fill="none" stroke-width="1.25" stroke-linecap="square" stroke-linejoin="miter" stroke="rgb(0%, 0%, 0%)" stroke-opacity="1" stroke-miterlimit="10" d="M 1340 345 L 1460 345 "/>
<path fill="none" stroke-width="1.25" stroke-linecap="square" stroke-linejoin="miter" stroke="rgb(0%, 0%, 0%)" stroke-opacity="1" stroke-miterlimit="10" d="M 1340 435 L 1460 435 "/>
<path fill="none" stroke-width="1.25" stroke-linecap="square" stroke-linejoin="miter" stroke="rgb(0%, 0%, 0%)" stroke-opacity="1" stroke-miterlimit="10" d="M 1340 525 L 1460 525 "/>
<path fill="none" stroke-width="1.25" stroke-linecap="square" stroke-linejoin="miter" stroke="rgb(0%, 0%, 0%)" stroke-opacity="1" stroke-miterlimit="10" d="M 920 297.5 L 975 355 "/>
<path fill="none" stroke-width="1.25" stroke-linecap="square" stroke-linejoin="miter" stroke="rgb(0%, 0%, 0%)" stroke-opacity="1" stroke-miterlimit="10" d="M 920 467.5 L 975 395 "/>
<path fill="none" stroke-width="1.25" stroke-linecap="square" stroke-linejoin="miter" stroke="rgb(0%, 0%, 0%)" stroke-opacity="1" stroke-miterlimit="10" d="M 1005 375 L 1060 375 "/>
<path fill-rule="nonzero" fill="rgb(100%, 100%, 100%)" fill-opacity="1" stroke-width="1.25" stroke-linecap="square" stroke-linejoin="miter" stroke="rgb(0%, 0%, 0%)" stroke-opacity="1" stroke-miterlimit="10" d="M 66 50 L 204 50 C 207.3125 50 210 52.6875 210 56 L 210 104 C 210 107.3125 207.3125 110 204 110 L 66 110 C 62.6875 110 60 107.3125 60 104 L 60 56 C 60 52.6875 62.6875 50 66 50 Z M 66 50 "/>
<g fill="rgb(0%, 0%, 0%)" fill-opacity="1">
<use xlink:href="#glyph-0-0" x="118.25" y="84.15625"/>
<use xlink:href="#glyph-0-1" x="125.832031" y="84.15625"/>
<use xlink:href="#glyph-0-2" x="133.4375" y="84.15625"/>
<use xlink:href="#glyph-0-3" x="138.142578" y="84.15625"/>
<use xlink:href="#glyph-0-2" x="141.476562" y="84.15625"/>
<use xlink:href="#glyph-0-4" x="146.181641" y="84.15625"/>
</g>
<path fill-rule="nonzero" fill="rgb(100%, 100%, 100%)" fill-opacity="1" stroke-width="1.25" stroke-linecap="square" stroke-linejoin="miter" stroke="rgb(0%, 0%, 0%)" stroke-opacity="1" stroke-miterlimit="10" d="M 72 160 L 398 160 C 404.628906 160 410 165.371094 410 172 L 410 268 C 410 274.628906 404.628906 280 398 280 L 72 280 C 65.371094 280 60 274.628906 60 268 L 60 172 C 60 165.371094 65.371094 160 72 160 Z M 72 160 "/>
<g fill="rgb(0%, 0%, 0%)" fill-opacity="1">
<use xlink:href="#glyph-0-5" x="199.15625" y="224.15625"/>
<use xlink:href="#glyph-0-6" x="208.601562" y="224.15625"/>
<use xlink:href="#glyph-0-2" x="216.207031" y="224.15625"/>
<use xlink:href="#glyph-0-7" x="220.912109" y="224.15625"/>
<use xlink:href="#glyph-0-8" x="228.294922" y="224.15625"/>
<use xlink:href="#glyph-0-9" x="233.228516" y="224.15625"/>
<use xlink:href="#glyph-0-7" x="237.042969" y="224.15625"/>
<use xlink:href="#glyph-0-1" x="244.425781" y="224.15625"/>
<use xlink:href="#glyph-0-2" x="252.03125" y="224.15625"/>
<use xlink:href="#glyph-0-3" x="256.736328" y="224.15625"/>
<use xlink:href="#glyph-0-2" x="260.070312" y="224.15625"/>
<use xlink:href="#glyph-0-4" x="264.775391" y="224.15625"/>
</g>
<path fill-rule="nonzero" fill="rgb(100%, 100%, 100%)" fill-opacity="1" stroke-width="1.25" stroke-linecap="square" stroke-linejoin="miter" stroke="rgb(0%, 0%, 0%)" stroke-opacity="1" stroke-miterlimit="10" d="M 85.5 195 L 194.5 195 C 197.539062 195 200 197.460938 200 200.5 L 200 244.5 C 200 247.539062 197.539062 250 194.5 250 L 85.5 250 C 82.460938 250 80 247.539062 80 244.5 L 80 200.5 C 80 197.460938 82.460938 195 85.5 195 Z M 85.5 195 "/>
<g fill="rgb(0%, 0%, 0%)" fill-opacity="1">
<use xlink:href="#glyph-0-10" x="100.285156" y="226.65625"/>
<use xlink:href="#glyph-0-7" x="109.261719" y="226.65625"/>
<use xlink:href="#glyph-0-11" x="116.644531" y="226.65625"/>
<use xlink:href="#glyph-0-2" x="122.896484" y="226.65625"/>
<use xlink:href="#glyph-0-7" x="127.601562" y="226.65625"/>
<use xlink:href="#glyph-0-12" x="134.984375" y="226.65625"/>
<use xlink:href="#glyph-0-9" x="142.601562" y="226.65625"/>
<use xlink:href="#glyph-0-7" x="146.416016" y="226.65625"/>
<use xlink:href="#glyph-0-1" x="153.798828" y="226.65625"/>
<use xlink:href="#glyph-0-2" x="161.404297" y="226.65625"/>
<use xlink:href="#glyph-0-3" x="166.109375" y="226.65625"/>
<use xlink:href="#glyph-0-2" x="169.443359" y="226.65625"/>
<use xlink:href="#glyph-0-4" x="174.148438" y="226.65625"/>
</g>
<path fill-rule="nonzero" fill="rgb(100%, 100%, 100%)" fill-opacity="1" stroke-width="1.25" stroke-linecap="square" stroke-linejoin="miter" stroke="rgb(0%, 0%, 0%)" stroke-opacity="1" stroke-miterlimit="10" d="M 80 320 L 122.5 355 L 80 390 L 250 390 L 207.5 355 L 250 320 Z M 80 320 "/>
<g fill="rgb(0%, 0%, 0%)" fill-opacity="1">
<use xlink:href="#glyph-0-13" x="115.007812" y="359.15625"/>
<use xlink:href="#glyph-0-7" x="122.244141" y="359.15625"/>
<use xlink:href="#glyph-0-8" x="129.626953" y="359.15625"/>
<use xlink:href="#glyph-0-2" x="134.560547" y="359.15625"/>
<use xlink:href="#glyph-0-6" x="139.265625" y="359.15625"/>
<use xlink:href="#glyph-0-8" x="146.871094" y="359.15625"/>
<use xlink:href="#glyph-0-14" x="151.804688" y="359.15625"/>
<use xlink:href="#glyph-0-3" x="159.421875" y="359.15625"/>
<use xlink:href="#glyph-0-1" x="162.755859" y="359.15625"/>
<use xlink:href="#glyph-0-15" x="170.361328" y="359.15625"/>
<use xlink:href="#glyph-0-9" x="177.978516" y="359.15625"/>
<use xlink:href="#glyph-0-16" x="181.792969" y="359.15625"/>
<use xlink:href="#glyph-0-15" x="189.146484" y="359.15625"/>
<use xlink:href="#glyph-0-7" x="196.763672" y="359.15625"/>
<use xlink:href="#glyph-0-1" x="204.146484" y="359.15625"/>
<use xlink:href="#glyph-0-2" x="211.751953" y="359.15625"/>
</g>
<path fill-rule="nonzero" fill="rgb(100%, 100%, 100%)" fill-opacity="1" stroke-width="1.25" stroke-linecap="square" stroke-linejoin="miter" stroke="rgb(0%, 0%, 0%)" stroke-opacity="1" stroke-miterlimit="10" d="M 55 460 L 165 460 C 167.761719 460 170 462.238281 170 465 L 170 505 C 170 507.761719 167.761719 510 165 510 L 55 510 C 52.238281 510 50 507.761719 50 505 L 50 465 C 50 462.238281 52.238281 460 55 460 Z M 55 460 "/>
<g fill="rgb(0%, 0%, 0%)" fill-opacity="1">
<use xlink:href="#glyph-0-0" x="87.109375" y="489.15625"/>
<use xlink:href="#glyph-0-1" x="94.691406" y="489.15625"/>
<use xlink:href="#glyph-0-2" x="102.296875" y="489.15625"/>
<use xlink:href="#glyph-0-3" x="107.001953" y="489.15625"/>
<use xlink:href="#glyph-0-2" x="110.335938" y="489.15625"/>
<use xlink:href="#glyph-0-4" x="115.041016" y="489.15625"/>
<use xlink:href="#glyph-0-9" x="122.142578" y="489.15625"/>
<use xlink:href="#glyph-0-17" x="125.957031" y="489.15625"/>
</g>
<path fill-rule="nonzero" fill="rgb(100%, 100%, 100%)" fill-opacity="1" stroke-width="1.25" stroke-linecap="square" stroke-linejoin="miter" stroke="rgb(0%, 0%, 0%)" stroke-opacity="1" stroke-miterlimit="10" d="M 275 460 L 385 460 C 387.761719 460 390 462.238281 390 465 L 390 505 C 390 507.761719 387.761719 510 385 510 L 275 510 C 272.238281 510 270 507.761719 270 505 L 270 465 C 270 462.238281 272.238281 460 275 460 Z M 275 460 "/>
<g fill="rgb(0%, 0%, 0%)" fill-opacity="1">
<use xlink:href="#glyph-0-0" x="307.472656" y="489.15625"/>
<use xlink:href="#glyph-0-1" x="315.054688" y="489.15625"/>
<use xlink:href="#glyph-0-2" x="322.660156" y="489.15625"/>
<use xlink:href="#glyph-0-3" x="327.365234" y="489.15625"/>
<use xlink:href="#glyph-0-2" x="330.699219" y="489.15625"/>
<use xlink:href="#glyph-0-4" x="335.404297" y="489.15625"/>
<use xlink:href="#glyph-0-9" x="342.505859" y="489.15625"/>
<use xlink:href="#glyph-0-18" x="346.320312" y="489.15625"/>
</g>
<path fill-rule="nonzero" fill="rgb(100%, 100%, 100%)" fill-opacity="1" stroke-width="1.25" stroke-linecap="square" stroke-linejoin="miter" stroke="rgb(0%, 0%, 0%)" stroke-opacity="1" stroke-miterlimit="10" d="M 446 60 L 624 60 C 627.3125 60 630 62.6875 630 66 L 630 114 C 630 117.3125 627.3125 120 624 120 L 446 120 C 442.6875 120 440 117.3125 440 114 L 440 66 C 440 62.6875 442.6875 60 446 60 Z M 446 60 "/>
<g fill="rgb(0%, 0%, 0%)" fill-opacity="1">
<use xlink:href="#glyph-0-19" x="479.484375" y="94.15625"/>
<use xlink:href="#glyph-0-1" x="488.267578" y="94.15625"/>
<use xlink:href="#glyph-0-3" x="495.873047" y="94.15625"/>
<use xlink:href="#glyph-0-2" x="499.207031" y="94.15625"/>
<use xlink:href="#glyph-0-9" x="503.912109" y="94.15625"/>
<use xlink:href="#glyph-0-20" x="507.726562" y="94.15625"/>
<use xlink:href="#glyph-0-21" x="515.068359" y="94.15625"/>
<use xlink:href="#glyph-0-9" x="519.292969" y="94.15625"/>
<use xlink:href="#glyph-0-3" x="523.107422" y="94.15625"/>
<use xlink:href="#glyph-0-1" x="526.441406" y="94.15625"/>
<use xlink:href="#glyph-0-21" x="534.046875" y="94.15625"/>
<use xlink:href="#glyph-0-20" x="538.271484" y="94.15625"/>
<use xlink:href="#glyph-0-8" x="545.613281" y="94.15625"/>
<use xlink:href="#glyph-0-22" x="550.546875" y="94.15625"/>
<use xlink:href="#glyph-0-16" x="562.236328" y="94.15625"/>
<use xlink:href="#glyph-0-2" x="569.589844" y="94.15625"/>
<use xlink:href="#glyph-0-3" x="574.294922" y="94.15625"/>
<use xlink:href="#glyph-0-20" x="577.628906" y="94.15625"/>
<use xlink:href="#glyph-0-1" x="584.970703" y="94.15625"/>
</g>
<path fill-rule="nonzero" fill="rgb(100%, 100%, 100%)" fill-opacity="1" stroke-width="1.25" stroke-linecap="square" stroke-linejoin="miter" stroke="rgb(0%, 0%, 0%)" stroke-opacity="1" stroke-miterlimit="10" d="M 465 50 L 545 50 L 545 70 L 465 70 Z M 465 50 "/>
<g fill="rgb(0%, 0%, 0%)" fill-opacity="1">
<use xlink:href="#glyph-1-0" x="488.070312" y="62.769531"/>
<use xlink:href="#glyph-1-1" x="493.148438" y="62.769531"/>
<use xlink:href="#glyph-1-2" x="496.4375" y="62.769531"/>
<use xlink:href="#glyph-1-3" x="501.359375" y="62.769531"/>
<use xlink:href="#glyph-1-4" x="504.054688" y="62.769531"/>
<use xlink:href="#glyph-1-5" x="506.277344" y="62.769531"/>
<use xlink:href="#glyph-1-6" x="511.179688" y="62.769531"/>
<use xlink:href="#glyph-1-2" x="516.257812" y="62.769531"/>
<use xlink:href="#glyph-1-4" x="521.179688" y="62.769531"/>
</g>
<path fill-rule="nonzero" fill="rgb(100%, 100%, 100%)" fill-opacity="1" stroke-width="1.25" stroke-linecap="square" stroke-linejoin="miter" stroke="rgb(0%, 0%, 0%)" stroke-opacity="1" stroke-miterlimit="10" d="M 446 170 L 624 170 C 627.3125 170 630 172.6875 630 176 L 630 224 C 630 227.3125 627.3125 230 624 230 L 446 230 C 442.6875 230 440 227.3125 440 224 L 440 176 C 440 172.6875 442.6875 170 446 170 Z M 446 170 "/>
<g fill="rgb(0%, 0%, 0%)" fill-opacity="1">
<use xlink:href="#glyph-0-23" x="493.71875" y="204.15625"/>
<use xlink:href="#glyph-0-2" x="501.335938" y="204.15625"/>
<use xlink:href="#glyph-0-16" x="506.041016" y="204.15625"/>
<use xlink:href="#glyph-0-2" x="513.394531" y="204.15625"/>
<use xlink:href="#glyph-0-7" x="518.099609" y="204.15625"/>
<use xlink:href="#glyph-0-9" x="525.482422" y="204.15625"/>
<use xlink:href="#glyph-0-24" x="529.296875" y="204.15625"/>
<use xlink:href="#glyph-0-16" x="536.398438" y="204.15625"/>
<use xlink:href="#glyph-0-8" x="543.751953" y="204.15625"/>
<use xlink:href="#glyph-0-3" x="548.685547" y="204.15625"/>
<use xlink:href="#glyph-0-16" x="552.019531" y="204.15625"/>
<use xlink:href="#glyph-0-14" x="559.373047" y="204.15625"/>
<use xlink:href="#glyph-0-25" x="566.990234" y="204.15625"/>
<use xlink:href="#glyph-0-7" x="570.324219" y="204.15625"/>
</g>
<path fill-rule="nonzero" fill="rgb(100%, 100%, 100%)" fill-opacity="1" stroke-width="1.25" stroke-linecap="square" stroke-linejoin="miter" stroke="rgb(0%, 0%, 0%)" stroke-opacity="1" stroke-miterlimit="10" d="M 475 160 L 550 160 C 555.523438 160 560 164.476562 560 170 C 560 175.523438 555.523438 180 550 180 L 475 180 C 469.476562 180 465 175.523438 465 170 C 465 164.476562 469.476562 160 475 160 Z M 475 160 "/>
<g fill="rgb(0%, 0%, 0%)" fill-opacity="1">
<use xlink:href="#glyph-1-7" x="481.769531" y="172.769531"/>
<use xlink:href="#glyph-1-5" x="486.503906" y="172.769531"/>
<use xlink:href="#glyph-1-4" x="491.40625" y="172.769531"/>
<use xlink:href="#glyph-1-8" x="493.628906" y="172.769531"/>
<use xlink:href="#glyph-1-2" x="498.699219" y="172.769531"/>
<use xlink:href="#glyph-1-9" x="503.621094" y="172.769531"/>
<use xlink:href="#glyph-1-7" x="511.621094" y="172.769531"/>
<use xlink:href="#glyph-1-5" x="516.355469" y="172.769531"/>
<use xlink:href="#glyph-1-1" x="521.257812" y="172.769531"/>
<use xlink:href="#glyph-1-10" x="524.546875" y="172.769531"/>
<use xlink:href="#glyph-1-5" x="526.769531" y="172.769531"/>
<use xlink:href="#glyph-1-6" x="531.671875" y="172.769531"/>
<use xlink:href="#glyph-1-4" x="536.75" y="172.769531"/>
<use xlink:href="#glyph-1-2" x="538.972656" y="172.769531"/>
</g>
<path fill-rule="nonzero" fill="rgb(100%, 100%, 100%)" fill-opacity="1" stroke-width="1.25" stroke-linecap="square" stroke-linejoin="miter" stroke="rgb(0%, 0%, 0%)" stroke-opacity="1" stroke-miterlimit="10" d="M 446 280 L 624 280 C 627.3125 280 630 282.6875 630 286 L 630 334 C 630 337.3125 627.3125 340 624 340 L 446 340 C 442.6875 340 440 337.3125 440 334 L 440 286 C 440 282.6875 442.6875 280 446 280 Z M 446 280 "/>
<g fill="rgb(0%, 0%, 0%)" fill-opacity="1">
<use xlink:href="#glyph-0-0" x="506.9375" y="314.15625"/>
<use xlink:href="#glyph-0-26" x="514.519531" y="314.15625"/>
<use xlink:href="#glyph-0-3" x="521.621094" y="314.15625"/>
<use xlink:href="#glyph-0-11" x="524.955078" y="314.15625"/>
<use xlink:href="#glyph-0-2" x="531.207031" y="314.15625"/>
<use xlink:href="#glyph-0-7" x="535.912109" y="314.15625"/>
<use xlink:href="#glyph-0-1" x="543.294922" y="314.15625"/>
<use xlink:href="#glyph-0-27" x="550.900391" y="314.15625"/>
<use xlink:href="#glyph-0-7" x="557.498047" y="314.15625"/>
</g>
<path fill-rule="nonzero" fill="rgb(100%, 100%, 100%)" fill-opacity="1" stroke-width="1.25" stroke-linecap="square" stroke-linejoin="miter" stroke="rgb(0%, 0%, 0%)" stroke-opacity="1" stroke-miterlimit="10" d="M 489 280 C 489 286.628906 483.628906 292 477 292 C 470.371094 292 465 286.628906 465 280 C 465 273.371094 470.371094 268 477 268 C 483.628906 268 489 273.371094 489 280 "/>
<g clip-path="url(#clip-0)">
<g clip-path="url(#clip-1)">
<path fill-rule="nonzero" fill="rgb(0%, 0%, 0%)" fill-opacity="1" d="M 477 268 L 489 268 L 489 292 L 477 292 Z M 477 268 "/>
</g>
</g>
<path fill="none" stroke-width="1.25" stroke-linecap="square" stroke-linejoin="miter" stroke="rgb(0%, 0%, 0%)" stroke-opacity="1" stroke-miterlimit="10" d="M 489 280 C 489 286.628906 483.628906 292 477 292 C 470.371094 292 465 286.628906 465 280 C 465 273.371094 470.371094 268 477 268 C 483.628906 268 489 273.371094 489 280 "/>
<path fill-rule="nonzero" fill="rgb(100%, 100%, 100%)" fill-opacity="1" stroke-width="1.25" stroke-linecap="square" stroke-linejoin="miter" stroke="rgb(0%, 0%, 0%)" stroke-opacity="1" stroke-miterlimit="10" d="M 446 390 L 624 390 C 627.3125 390 630 392.6875 630 396 L 630 444 C 630 447.3125 627.3125 450 624 450 L 446 450 C 442.6875 450 440 447.3125 440 444 L 440 396 C 440 392.6875 442.6875 390 446 390 Z M 446 390 "/>
<g fill="rgb(0%, 0%, 0%)" fill-opacity="1">
<use xlink:href="#glyph-0-28" x="510.617188" y="424.15625"/>
<use xlink:href="#glyph-0-20" x="517.302734" y="424.15625"/>
<use xlink:href="#glyph-0-27" x="524.644531" y="424.15625"/>
<use xlink:href="#glyph-0-16" x="531.242188" y="424.15625"/>
<use xlink:href="#glyph-0-2" x="538.595703" y="424.15625"/>
<use xlink:href="#glyph-0-3" x="543.300781" y="424.15625"/>
<use xlink:href="#glyph-0-20" x="546.634766" y="424.15625"/>
<use xlink:href="#glyph-0-1" x="553.976562" y="424.15625"/>
</g>
<path fill-rule="nonzero" fill="rgb(100%, 100%, 100%)" fill-opacity="1" stroke-width="1.25" stroke-linecap="square" stroke-linejoin="miter" stroke="rgb(0%, 0%, 0%)" stroke-opacity="1" stroke-miterlimit="10" d="M 489 390 C 489 396.628906 483.628906 402 477 402 C 470.371094 402 465 396.628906 465 390 C 465 383.371094 470.371094 378 477 378 C 483.628906 378 489 383.371094 489 390 "/>
<path fill="none" stroke-width="1.25" stroke-linecap="square" stroke-linejoin="miter" stroke="rgb(0%, 0%, 0%)" stroke-opacity="1" stroke-miterlimit="10" d="M 468.515625 381.515625 L 485.484375 398.484375 M 468.515625 398.484375 L 485.484375 381.515625 "/>
<path fill-rule="nonzero" fill="rgb(100%, 100%, 100%)" fill-opacity="1" stroke-width="1.25" stroke-linecap="square" stroke-linejoin="miter" stroke="rgb(0%, 0%, 0%)" stroke-opacity="1" stroke-miterlimit="10" d="M 492 500 L 578 500 C 587.390625 500 595 507.609375 595 517 C 595 526.390625 587.390625 534 578 534 L 492 534 C 482.609375 534 475 526.390625 475 517 C 475 507.609375 482.609375 500 492 500 Z M 492 500 "/>
<g fill="rgb(0%, 0%, 0%)" fill-opacity="1">
<use xlink:href="#glyph-0-29" x="492.3125" y="521.15625"/>
<use xlink:href="#glyph-0-16" x="500.521484" y="521.15625"/>
<use xlink:href="#glyph-0-8" x="507.875" y="521.15625"/>
<use xlink:href="#glyph-0-3" x="512.808594" y="521.15625"/>
<use xlink:href="#glyph-0-16" x="516.142578" y="521.15625"/>
<use xlink:href="#glyph-0-14" x="523.496094" y="521.15625"/>
<use xlink:href="#glyph-0-25" x="531.113281" y="521.15625"/>
<use xlink:href="#glyph-0-7" x="534.447266" y="521.15625"/>
<use xlink:href="#glyph-0-9" x="541.830078" y="521.15625"/>
<use xlink:href="#glyph-0-24" x="545.644531" y="521.15625"/>
<use xlink:href="#glyph-0-16" x="552.746094" y="521.15625"/>
<use xlink:href="#glyph-0-25" x="560.099609" y="521.15625"/>
<use xlink:href="#glyph-0-6" x="563.433594" y="521.15625"/>
<use xlink:href="#glyph-0-7" x="571.039062" y="521.15625"/>
</g>
<path fill-rule="nonzero" fill="rgb(100%, 100%, 100%)" fill-opacity="1" stroke-width="1.25" stroke-linecap="square" stroke-linejoin="miter" stroke="rgb(0%, 0%, 0%)" stroke-opacity="1" stroke-miterlimit="10" d="M 725 85 C 725 98.808594 713.808594 110 700 110 C 686.191406 110 675 98.808594 675 85 C 675 71.191406 686.191406 60 700 60 C 713.808594 60 725 71.191406 725 85 "/>
<g fill="rgb(0%, 0%, 0%)" fill-opacity="1">
<use xlink:href="#glyph-0-17" x="687.1875" y="89.15625"/>
<use xlink:href="#glyph-0-10" x="695.396484" y="89.15625"/>
<use xlink:href="#glyph-0-30" x="704.373047" y="89.15625"/>
</g>
<path fill-rule="nonzero" fill="rgb(100%, 100%, 100%)" fill-opacity="1" stroke-width="1.25" stroke-linecap="square" stroke-linejoin="miter" stroke="rgb(0%, 0%, 0%)" stroke-opacity="1" stroke-miterlimit="10" d="M 725 185 C 725 198.808594 713.808594 210 700 210 C 686.191406 210 675 198.808594 675 185 C 675 171.191406 686.191406 160 700 160 C 713.808594 160 725 171.191406 725 185 "/>
<g fill="rgb(0%, 0%, 0%)" fill-opacity="1">
<use xlink:href="#glyph-0-5" x="691.617188" y="189.15625"/>
<use xlink:href="#glyph-0-31" x="701.0625" y="189.15625"/>
</g>
<path fill-rule="nonzero" fill="rgb(100%, 100%, 100%)" fill-opacity="1" stroke-width="1.25" stroke-linecap="square" stroke-linejoin="miter" stroke="rgb(0%, 0%, 0%)" stroke-opacity="1" stroke-miterlimit="10" d="M 725 285 C 725 298.808594 713.808594 310 700 310 C 686.191406 310 675 298.808594 675 285 C 675 271.191406 686.191406 260 700 260 C 713.808594 260 725 271.191406 725 285 "/>
<g fill="rgb(0%, 0%, 0%)" fill-opacity="1">
<use xlink:href="#glyph-0-10" x="687.695312" y="289.15625"/>
<use xlink:href="#glyph-0-5" x="696.671875" y="289.15625"/>
<use xlink:href="#glyph-0-32" x="706.117188" y="289.15625"/>
</g>
<path fill-rule="nonzero" fill="rgb(100%, 100%, 100%)" fill-opacity="1" stroke-width="1.25" stroke-linecap="square" stroke-linejoin="miter" stroke="rgb(0%, 0%, 0%)" stroke-opacity="1" stroke-miterlimit="10" d="M 725 385 C 725 398.808594 713.808594 410 700 410 C 686.191406 410 675 398.808594 675 385 C 675 371.191406 686.191406 360 700 360 C 713.808594 360 725 371.191406 725 385 "/>
<g fill="rgb(0%, 0%, 0%)" fill-opacity="1">
<use xlink:href="#glyph-0-33" x="696.972656" y="389.15625"/>
</g>
<path fill-rule="nonzero" fill="rgb(100%, 100%, 100%)" fill-opacity="1" stroke-width="1.25" stroke-linecap="square" stroke-linejoin="miter" stroke="rgb(0%, 0%, 0%)" stroke-opacity="1" stroke-miterlimit="10" d="M 780 385 L 810 355 L 870 355 L 900 385 L 870 415 L 810 415 Z M 780 385 "/>
<g fill="rgb(0%, 0%, 0%)" fill-opacity="1">
<use xlink:href="#glyph-0-28" x="804.6875" y="389.15625"/>
<use xlink:href="#glyph-0-20" x="811.373047" y="389.15625"/>
<use xlink:href="#glyph-0-15" x="818.714844" y="389.15625"/>
<use xlink:href="#glyph-0-3" x="826.332031" y="389.15625"/>
<use xlink:href="#glyph-0-27" x="829.666016" y="389.15625"/>
<use xlink:href="#glyph-0-9" x="836.263672" y="389.15625"/>
<use xlink:href="#glyph-0-2" x="840.078125" y="389.15625"/>
<use xlink:href="#glyph-0-16" x="844.783203" y="389.15625"/>
<use xlink:href="#glyph-0-8" x="852.136719" y="389.15625"/>
<use xlink:href="#glyph-0-15" x="857.070312" y="389.15625"/>
<use xlink:href="#glyph-0-7" x="864.6875" y="389.15625"/>
<use xlink:href="#glyph-0-2" x="872.070312" y="389.15625"/>
</g>
<path fill-rule="nonzero" fill="rgb(100%, 100%, 100%)" fill-opacity="1" stroke-width="1.25" stroke-linecap="square" stroke-linejoin="miter" stroke="rgb(0%, 0%, 0%)" stroke-opacity="1" stroke-miterlimit="10" d="M 837 60 L 923 60 C 932.390625 60 940 67.609375 940 77 C 940 86.390625 932.390625 94 923 94 L 837 94 C 827.609375 94 820 86.390625 820 77 C 820 67.609375 827.609375 60 837 60 Z M 837 60 "/>
<g fill="rgb(0%, 0%, 0%)" fill-opacity="1">
<use xlink:href="#glyph-0-16" x="835.675781" y="81.15625"/>
<use xlink:href="#glyph-0-11" x="843.029297" y="81.15625"/>
<use xlink:href="#glyph-0-11" x="849.28125" y="81.15625"/>
<use xlink:href="#glyph-0-3" x="855.533203" y="81.15625"/>
<use xlink:href="#glyph-0-15" x="858.867188" y="81.15625"/>
<use xlink:href="#glyph-0-1" x="866.484375" y="81.15625"/>
<use xlink:href="#glyph-0-7" x="874.089844" y="81.15625"/>
<use xlink:href="#glyph-0-12" x="881.472656" y="81.15625"/>
<use xlink:href="#glyph-0-9" x="889.089844" y="81.15625"/>
<use xlink:href="#glyph-0-24" x="892.904297" y="81.15625"/>
<use xlink:href="#glyph-0-16" x="900.005859" y="81.15625"/>
<use xlink:href="#glyph-0-25" x="907.359375" y="81.15625"/>
<use xlink:href="#glyph-0-6" x="910.693359" y="81.15625"/>
<use xlink:href="#glyph-0-7" x="918.298828" y="81.15625"/>
</g>
<path fill-rule="nonzero" fill="rgb(100%, 100%, 100%)" fill-opacity="1" stroke-width="1.25" stroke-linecap="square" stroke-linejoin="miter" stroke="rgb(0%, 0%, 0%)" stroke-opacity="1" stroke-miterlimit="10" d="M 801 170 L 959 170 C 962.3125 170 965 172.6875 965 176 L 965 224 C 965 227.3125 962.3125 230 959 230 L 801 230 C 797.6875 230 795 227.3125 795 224 L 795 176 C 795 172.6875 797.6875 170 801 170 Z M 801 170 "/>
<g fill="rgb(0%, 0%, 0%)" fill-opacity="1">
<use xlink:href="#glyph-0-17" x="824.609375" y="204.15625"/>
<use xlink:href="#glyph-0-11" x="832.818359" y="204.15625"/>
<use xlink:href="#glyph-0-11" x="839.070312" y="204.15625"/>
<use xlink:href="#glyph-0-3" x="845.322266" y="204.15625"/>
<use xlink:href="#glyph-0-15" x="848.65625" y="204.15625"/>
<use xlink:href="#glyph-0-1" x="856.273438" y="204.15625"/>
<use xlink:href="#glyph-0-22" x="863.878906" y="204.15625"/>
<use xlink:href="#glyph-0-7" x="875.568359" y="204.15625"/>
<use xlink:href="#glyph-0-1" x="882.951172" y="204.15625"/>
<use xlink:href="#glyph-0-2" x="890.556641" y="204.15625"/>
<use xlink:href="#glyph-0-9" x="895.261719" y="204.15625"/>
<use xlink:href="#glyph-0-2" x="899.076172" y="204.15625"/>
<use xlink:href="#glyph-0-16" x="903.78125" y="204.15625"/>
<use xlink:href="#glyph-0-8" x="911.134766" y="204.15625"/>
<use xlink:href="#glyph-0-15" x="916.068359" y="204.15625"/>
<use xlink:href="#glyph-0-7" x="923.685547" y="204.15625"/>
<use xlink:href="#glyph-0-2" x="931.068359" y="204.15625"/>
</g>
<path fill-rule="nonzero" fill="rgb(100%, 100%, 100%)" fill-opacity="1" stroke-width="1.25" stroke-linecap="square" stroke-linejoin="miter" stroke="rgb(0%, 0%, 0%)" stroke-opacity="1" stroke-miterlimit="10" d="M 850 160 L 910 160 C 915.523438 160 920 164.476562 920 170 C 920 175.523438 915.523438 180 910 180 L 850 180 C 844.476562 180 840 175.523438 840 170 C 840 164.476562 844.476562 160 850 160 Z M 850 160 "/>
<g fill="rgb(0%, 0%, 0%)" fill-opacity="1">
<use xlink:href="#glyph-1-11" x="870.296875" y="172.769531"/>
<use xlink:href="#glyph-1-12" x="874.464844" y="172.769531"/>
<use xlink:href="#glyph-1-5" x="877.601562" y="172.769531"/>
<use xlink:href="#glyph-1-12" x="882.503906" y="172.769531"/>
<use xlink:href="#glyph-1-2" x="885.640625" y="172.769531"/>
</g>
<path fill-rule="nonzero" fill="rgb(100%, 100%, 100%)" fill-opacity="1" stroke-width="1.25" stroke-linecap="square" stroke-linejoin="miter" stroke="rgb(0%, 0%, 0%)" stroke-opacity="1" stroke-miterlimit="10" d="M 804.5 275 L 915.5 275 C 917.984375 275 920 277.015625 920 279.5 L 920 315.5 C 920 317.984375 917.984375 320 915.5 320 L 804.5 320 C 802.015625 320 800 317.984375 800 315.5 L 800 279.5 C 800 277.015625 802.015625 275 804.5 275 Z M 804.5 275 "/>
<g fill="rgb(0%, 0%, 0%)" fill-opacity="1">
<use xlink:href="#glyph-0-34" x="825.078125" y="301.65625"/>
<use xlink:href="#glyph-0-1" x="828.617188" y="301.65625"/>
<use xlink:href="#glyph-0-2" x="836.222656" y="301.65625"/>
<use xlink:href="#glyph-0-7" x="840.927734" y="301.65625"/>
<use xlink:href="#glyph-0-8" x="848.310547" y="301.65625"/>
<use xlink:href="#glyph-0-16" x="853.244141" y="301.65625"/>
<use xlink:href="#glyph-0-27" x="860.597656" y="301.65625"/>
<use xlink:href="#glyph-0-2" x="867.195312" y="301.65625"/>
<use xlink:href="#glyph-0-20" x="871.900391" y="301.65625"/>
<use xlink:href="#glyph-0-8" x="879.242188" y="301.65625"/>
<use xlink:href="#glyph-0-9" x="884.175781" y="301.65625"/>
<use xlink:href="#glyph-0-17" x="887.990234" y="301.65625"/>
</g>
<path fill-rule="nonzero" fill="rgb(100%, 100%, 100%)" fill-opacity="1" stroke-width="1.25" stroke-linecap="square" stroke-linejoin="miter" stroke="rgb(0%, 0%, 0%)" stroke-opacity="1" stroke-miterlimit="10" d="M 804.5 445 L 915.5 445 C 917.984375 445 920 447.015625 920 449.5 L 920 485.5 C 920 487.984375 917.984375 490 915.5 490 L 804.5 490 C 802.015625 490 800 487.984375 800 485.5 L 800 449.5 C 800 447.015625 802.015625 445 804.5 445 Z M 804.5 445 "/>
<g fill="rgb(0%, 0%, 0%)" fill-opacity="1">
<use xlink:href="#glyph-0-34" x="825.441406" y="471.65625"/>
<use xlink:href="#glyph-0-1" x="828.980469" y="471.65625"/>
<use xlink:href="#glyph-0-2" x="836.585938" y="471.65625"/>
<use xlink:href="#glyph-0-7" x="841.291016" y="471.65625"/>
<use xlink:href="#glyph-0-8" x="848.673828" y="471.65625"/>
<use xlink:href="#glyph-0-16" x="853.607422" y="471.65625"/>
<use xlink:href="#glyph-0-27" x="860.960938" y="471.65625"/>
<use xlink:href="#glyph-0-2" x="867.558594" y="471.65625"/>
<use xlink:href="#glyph-0-20" x="872.263672" y="471.65625"/>
<use xlink:href="#glyph-0-8" x="879.605469" y="471.65625"/>
<use xlink:href="#glyph-0-9" x="884.539062" y="471.65625"/>
<use xlink:href="#glyph-0-18" x="888.353516" y="471.65625"/>
</g>
<path fill-rule="nonzero" fill="rgb(100%, 100%, 100%)" fill-opacity="1" stroke-width="1.25" stroke-linecap="square" stroke-linejoin="miter" stroke="rgb(0%, 0%, 0%)" stroke-opacity="1" stroke-miterlimit="10" d="M 1065 350 L 1175 350 C 1177.761719 350 1180 352.238281 1180 355 L 1180 395 C 1180 397.761719 1177.761719 400 1175 400 L 1065 400 C 1062.238281 400 1060 397.761719 1060 395 L 1060 355 C 1060 352.238281 1062.238281 350 1065 350 Z M 1065 350 "/>
<g fill="rgb(0%, 0%, 0%)" fill-opacity="1">
<use xlink:href="#glyph-0-34" x="1085.269531" y="379.15625"/>
<use xlink:href="#glyph-0-1" x="1088.808594" y="379.15625"/>
<use xlink:href="#glyph-0-2" x="1096.414062" y="379.15625"/>
<use xlink:href="#glyph-0-7" x="1101.119141" y="379.15625"/>
<use xlink:href="#glyph-0-8" x="1108.501953" y="379.15625"/>
<use xlink:href="#glyph-0-16" x="1113.435547" y="379.15625"/>
<use xlink:href="#glyph-0-27" x="1120.789062" y="379.15625"/>
<use xlink:href="#glyph-0-2" x="1127.386719" y="379.15625"/>
<use xlink:href="#glyph-0-20" x="1132.091797" y="379.15625"/>
<use xlink:href="#glyph-0-8" x="1139.433594" y="379.15625"/>
<use xlink:href="#glyph-0-9" x="1144.367188" y="379.15625"/>
<use xlink:href="#glyph-0-35" x="1148.181641" y="379.15625"/>
</g>
<path fill-rule="nonzero" fill="rgb(100%, 100%, 100%)" fill-opacity="1" stroke-width="1.25" stroke-linecap="square" stroke-linejoin="miter" stroke="rgb(0%, 0%, 0%)" stroke-opacity="1" stroke-miterlimit="10" d="M 840 567.5 L 875 535 L 945 535 L 980 567.5 L 945 600 L 875 600 Z M 840 567.5 "/>
<g fill="rgb(0%, 0%, 0%)" fill-opacity="1">
<use xlink:href="#glyph-0-13" x="878.917969" y="571.65625"/>
<use xlink:href="#glyph-0-36" x="886.154297" y="571.65625"/>
<use xlink:href="#glyph-0-7" x="893.759766" y="571.65625"/>
<use xlink:href="#glyph-0-1" x="901.142578" y="571.65625"/>
<use xlink:href="#glyph-0-20" x="908.748047" y="571.65625"/>
<use xlink:href="#glyph-0-2" x="916.089844" y="571.65625"/>
<use xlink:href="#glyph-0-4" x="920.794922" y="571.65625"/>
<use xlink:href="#glyph-0-37" x="927.896484" y="571.65625"/>
<use xlink:href="#glyph-0-7" x="935.513672" y="571.65625"/>
</g>
<path fill-rule="nonzero" fill="rgb(100%, 100%, 100%)" fill-opacity="1" stroke-width="1.25" stroke-linecap="square" stroke-linejoin="miter" stroke="rgb(0%, 0%, 0%)" stroke-opacity="1" stroke-miterlimit="10" d="M 1225 50 L 1335 50 C 1337.761719 50 1340 52.238281 1340 55 L 1340 95 C 1340 97.761719 1337.761719 100 1335 100 L 1225 100 C 1222.238281 100 1220 97.761719 1220 95 L 1220 55 C 1220 52.238281 1222.238281 50 1225 50 Z M 1225 50 "/>
<g fill="rgb(0%, 0%, 0%)" fill-opacity="1">
<use xlink:href="#glyph-0-38" x="1247.804688" y="79.15625"/>
<use xlink:href="#glyph-0-20" x="1258.158203" y="79.15625"/>
<use xlink:href="#glyph-0-12" x="1265.5" y="79.15625"/>
<use xlink:href="#glyph-0-6" x="1273.117188" y="79.15625"/>
<use xlink:href="#glyph-0-25" x="1280.722656" y="79.15625"/>
<use xlink:href="#glyph-0-16" x="1284.056641" y="79.15625"/>
<use xlink:href="#glyph-0-2" x="1291.410156" y="79.15625"/>
<use xlink:href="#glyph-0-3" x="1296.115234" y="79.15625"/>
<use xlink:href="#glyph-0-20" x="1299.449219" y="79.15625"/>
<use xlink:href="#glyph-0-1" x="1306.791016" y="79.15625"/>
</g>
<path fill-rule="nonzero" fill="rgb(100%, 100%, 100%)" fill-opacity="1" stroke-width="1.25" stroke-linecap="square" stroke-linejoin="miter" stroke="rgb(0%, 0%, 0%)" stroke-opacity="1" stroke-miterlimit="10" d="M 1460 75 L 1490 50 L 1550 50 L 1580 75 L 1550 100 L 1490 100 Z M 1460 75 "/>
<g fill="rgb(0%, 0%, 0%)" fill-opacity="1">
<use xlink:href="#glyph-0-32" x="1500.464844" y="79.15625"/>
<use xlink:href="#glyph-0-16" x="1507.794922" y="79.15625"/>
<use xlink:href="#glyph-0-8" x="1515.148438" y="79.15625"/>
<use xlink:href="#glyph-0-15" x="1520.082031" y="79.15625"/>
<use xlink:href="#glyph-0-7" x="1527.699219" y="79.15625"/>
<use xlink:href="#glyph-0-2" x="1535.082031" y="79.15625"/>
</g>
<path fill-rule="nonzero" fill="rgb(100%, 100%, 100%)" fill-opacity="1" stroke-width="1.25" stroke-linecap="square" stroke-linejoin="miter" stroke="rgb(0%, 0%, 0%)" stroke-opacity="1" stroke-miterlimit="10" d="M 1225 140 L 1335 140 C 1337.761719 140 1340 142.238281 1340 145 L 1340 185 C 1340 187.761719 1337.761719 190 1335 190 L 1225 190 C 1222.238281 190 1220 187.761719 1220 185 L 1220 145 C 1220 142.238281 1222.238281 140 1225 140 Z M 1225 140 "/>
<g fill="rgb(0%, 0%, 0%)" fill-opacity="1">
<use xlink:href="#glyph-0-23" x="1246.59375" y="169.15625"/>
<use xlink:href="#glyph-0-2" x="1254.210938" y="169.15625"/>
<use xlink:href="#glyph-0-3" x="1258.916016" y="169.15625"/>
<use xlink:href="#glyph-0-22" x="1262.25" y="169.15625"/>
<use xlink:href="#glyph-0-6" x="1273.939453" y="169.15625"/>
<use xlink:href="#glyph-0-25" x="1281.544922" y="169.15625"/>
<use xlink:href="#glyph-0-16" x="1284.878906" y="169.15625"/>
<use xlink:href="#glyph-0-2" x="1292.232422" y="169.15625"/>
<use xlink:href="#glyph-0-3" x="1296.9375" y="169.15625"/>
<use xlink:href="#glyph-0-20" x="1300.271484" y="169.15625"/>
<use xlink:href="#glyph-0-1" x="1307.613281" y="169.15625"/>
</g>
<path fill-rule="nonzero" fill="rgb(100%, 100%, 100%)" fill-opacity="1" stroke-width="1.25" stroke-linecap="square" stroke-linejoin="miter" stroke="rgb(0%, 0%, 0%)" stroke-opacity="1" stroke-miterlimit="10" d="M 1460 165 L 1490 140 L 1550 140 L 1580 165 L 1550 190 L 1490 190 Z M 1460 165 "/>
<g fill="rgb(0%, 0%, 0%)" fill-opacity="1">
<use xlink:href="#glyph-0-32" x="1500.464844" y="169.15625"/>
<use xlink:href="#glyph-0-16" x="1507.794922" y="169.15625"/>
<use xlink:href="#glyph-0-8" x="1515.148438" y="169.15625"/>
<use xlink:href="#glyph-0-15" x="1520.082031" y="169.15625"/>
<use xlink:href="#glyph-0-7" x="1527.699219" y="169.15625"/>
<use xlink:href="#glyph-0-2" x="1535.082031" y="169.15625"/>
</g>
<path fill-rule="nonzero" fill="rgb(100%, 100%, 100%)" fill-opacity="1" stroke-width="1.25" stroke-linecap="square" stroke-linejoin="miter" stroke="rgb(0%, 0%, 0%)" stroke-opacity="1" stroke-miterlimit="10" d="M 1225 230 L 1335 230 C 1337.761719 230 1340 232.238281 1340 235 L 1340 275 C 1340 277.761719 1337.761719 280 1335 280 L 1225 280 C 1222.238281 280 1220 277.761719 1220 275 L 1220 235 C 1220 232.238281 1222.238281 230 1225 230 Z M 1225 230 "/>
<g fill="rgb(0%, 0%, 0%)" fill-opacity="1">
<use xlink:href="#glyph-0-10" x="1214.445312" y="259.15625"/>
<use xlink:href="#glyph-0-7" x="1223.421875" y="259.15625"/>
<use xlink:href="#glyph-0-27" x="1230.804688" y="259.15625"/>
<use xlink:href="#glyph-0-7" x="1237.402344" y="259.15625"/>
<use xlink:href="#glyph-0-11" x="1244.785156" y="259.15625"/>
<use xlink:href="#glyph-0-11" x="1251.037109" y="259.15625"/>
<use xlink:href="#glyph-0-16" x="1257.289062" y="259.15625"/>
<use xlink:href="#glyph-0-8" x="1264.642578" y="259.15625"/>
<use xlink:href="#glyph-0-4" x="1269.576172" y="259.15625"/>
<use xlink:href="#glyph-0-9" x="1276.677734" y="259.15625"/>
<use xlink:href="#glyph-0-11" x="1280.492188" y="259.15625"/>
<use xlink:href="#glyph-0-2" x="1286.744141" y="259.15625"/>
<use xlink:href="#glyph-0-3" x="1291.449219" y="259.15625"/>
<use xlink:href="#glyph-0-22" x="1294.783203" y="259.15625"/>
<use xlink:href="#glyph-0-6" x="1306.472656" y="259.15625"/>
<use xlink:href="#glyph-0-25" x="1314.078125" y="259.15625"/>
<use xlink:href="#glyph-0-16" x="1317.412109" y="259.15625"/>
<use xlink:href="#glyph-0-2" x="1324.765625" y="259.15625"/>
<use xlink:href="#glyph-0-3" x="1329.470703" y="259.15625"/>
<use xlink:href="#glyph-0-20" x="1332.804688" y="259.15625"/>
<use xlink:href="#glyph-0-1" x="1340.146484" y="259.15625"/>
</g>
<path fill-rule="nonzero" fill="rgb(100%, 100%, 100%)" fill-opacity="1" stroke-width="1.25" stroke-linecap="square" stroke-linejoin="miter" stroke="rgb(0%, 0%, 0%)" stroke-opacity="1" stroke-miterlimit="10" d="M 1460 255 L 1490 230 L 1550 230 L 1580 255 L 1550 280 L 1490 280 Z M 1460 255 "/>
<g fill="rgb(0%, 0%, 0%)" fill-opacity="1">
<use xlink:href="#glyph-0-32" x="1500.464844" y="259.15625"/>
<use xlink:href="#glyph-0-16" x="1507.794922" y="259.15625"/>
<use xlink:href="#glyph-0-8" x="1515.148438" y="259.15625"/>
<use xlink:href="#glyph-0-15" x="1520.082031" y="259.15625"/>
<use xlink:href="#glyph-0-7" x="1527.699219" y="259.15625"/>
<use xlink:href="#glyph-0-2" x="1535.082031" y="259.15625"/>
</g>
<path fill-rule="nonzero" fill="rgb(100%, 100%, 100%)" fill-opacity="1" stroke-width="1.25" stroke-linecap="square" stroke-linejoin="miter" stroke="rgb(0%, 0%, 0%)" stroke-opacity="1" stroke-miterlimit="10" d="M 1225 320 L 1335 320 C 1337.761719 320 1340 322.238281 1340 325 L 1340 365 C 1340 367.761719 1337.761719 370 1335 370 L 1225 370 C 1222.238281 370 1220 367.761719 1220 365 L 1220 325 C 1220 322.238281 1222.238281 320 1225 320 Z M 1225 320 "/>
<g fill="rgb(0%, 0%, 0%)" fill-opacity="1">
<use xlink:href="#glyph-0-17" x="1218.796875" y="349.15625"/>
<use xlink:href="#glyph-0-14" x="1227.005859" y="349.15625"/>
<use xlink:href="#glyph-0-11" x="1234.623047" y="349.15625"/>
<use xlink:href="#glyph-0-20" x="1240.875" y="349.15625"/>
<use xlink:href="#glyph-0-25" x="1248.216797" y="349.15625"/>
<use xlink:href="#glyph-0-6" x="1251.550781" y="349.15625"/>
<use xlink:href="#glyph-0-2" x="1259.15625" y="349.15625"/>
<use xlink:href="#glyph-0-7" x="1263.861328" y="349.15625"/>
<use xlink:href="#glyph-0-9" x="1271.244141" y="349.15625"/>
<use xlink:href="#glyph-0-11" x="1275.058594" y="349.15625"/>
<use xlink:href="#glyph-0-2" x="1281.310547" y="349.15625"/>
<use xlink:href="#glyph-0-3" x="1286.015625" y="349.15625"/>
<use xlink:href="#glyph-0-22" x="1289.349609" y="349.15625"/>
<use xlink:href="#glyph-0-6" x="1301.039062" y="349.15625"/>
<use xlink:href="#glyph-0-25" x="1308.644531" y="349.15625"/>
<use xlink:href="#glyph-0-16" x="1311.978516" y="349.15625"/>
<use xlink:href="#glyph-0-2" x="1319.332031" y="349.15625"/>
<use xlink:href="#glyph-0-3" x="1324.037109" y="349.15625"/>
<use xlink:href="#glyph-0-20" x="1327.371094" y="349.15625"/>
<use xlink:href="#glyph-0-1" x="1334.712891" y="349.15625"/>
</g>
<path fill-rule="nonzero" fill="rgb(100%, 100%, 100%)" fill-opacity="1" stroke-width="1.25" stroke-linecap="square" stroke-linejoin="miter" stroke="rgb(0%, 0%, 0%)" stroke-opacity="1" stroke-miterlimit="10" d="M 1460 345 L 1490 320 L 1550 320 L 1580 345 L 1550 370 L 1490 370 Z M 1460 345 "/>
<g fill="rgb(0%, 0%, 0%)" fill-opacity="1">
<use xlink:href="#glyph-0-32" x="1500.464844" y="349.15625"/>
<use xlink:href="#glyph-0-16" x="1507.794922" y="349.15625"/>
<use xlink:href="#glyph-0-8" x="1515.148438" y="349.15625"/>
<use xlink:href="#glyph-0-15" x="1520.082031" y="349.15625"/>
<use xlink:href="#glyph-0-7" x="1527.699219" y="349.15625"/>
<use xlink:href="#glyph-0-2" x="1535.082031" y="349.15625"/>
</g>
<path fill-rule="nonzero" fill="rgb(100%, 100%, 100%)" fill-opacity="1" stroke-width="1.25" stroke-linecap="square" stroke-linejoin="miter" stroke="rgb(0%, 0%, 0%)" stroke-opacity="1" stroke-miterlimit="10" d="M 1225 410 L 1335 410 C 1337.761719 410 1340 412.238281 1340 415 L 1340 455 C 1340 457.761719 1337.761719 460 1335 460 L 1225 460 C 1222.238281 460 1220 457.761719 1220 455 L 1220 415 C 1220 412.238281 1222.238281 410 1225 410 Z M 1225 410 "/>
<g fill="rgb(0%, 0%, 0%)" fill-opacity="1">
<use xlink:href="#glyph-0-34" x="1253.085938" y="439.15625"/>
<use xlink:href="#glyph-0-1" x="1256.625" y="439.15625"/>
<use xlink:href="#glyph-0-36" x="1264.230469" y="439.15625"/>
<use xlink:href="#glyph-0-3" x="1271.835938" y="439.15625"/>
<use xlink:href="#glyph-0-14" x="1275.169922" y="439.15625"/>
<use xlink:href="#glyph-0-3" x="1282.787109" y="439.15625"/>
<use xlink:href="#glyph-0-2" x="1286.121094" y="439.15625"/>
<use xlink:href="#glyph-0-3" x="1290.826172" y="439.15625"/>
<use xlink:href="#glyph-0-20" x="1294.160156" y="439.15625"/>
<use xlink:href="#glyph-0-1" x="1301.501953" y="439.15625"/>
</g>
<path fill-rule="nonzero" fill="rgb(100%, 100%, 100%)" fill-opacity="1" stroke-width="1.25" stroke-linecap="square" stroke-linejoin="miter" stroke="rgb(0%, 0%, 0%)" stroke-opacity="1" stroke-miterlimit="10" d="M 1460 435 L 1490 410 L 1550 410 L 1580 435 L 1550 460 L 1490 460 Z M 1460 435 "/>
<g fill="rgb(0%, 0%, 0%)" fill-opacity="1">
<use xlink:href="#glyph-0-32" x="1500.464844" y="439.15625"/>
<use xlink:href="#glyph-0-16" x="1507.794922" y="439.15625"/>
<use xlink:href="#glyph-0-8" x="1515.148438" y="439.15625"/>
<use xlink:href="#glyph-0-15" x="1520.082031" y="439.15625"/>
<use xlink:href="#glyph-0-7" x="1527.699219" y="439.15625"/>
<use xlink:href="#glyph-0-2" x="1535.082031" y="439.15625"/>
</g>
<path fill-rule="nonzero" fill="rgb(100%, 100%, 100%)" fill-opacity="1" stroke-width="1.25" stroke-linecap="square" stroke-linejoin="miter" stroke="rgb(0%, 0%, 0%)" stroke-opacity="1" stroke-miterlimit="10" d="M 1225 500 L 1335 500 C 1337.761719 500 1340 502.238281 1340 505 L 1340 545 C 1340 547.761719 1337.761719 550 1335 550 L 1225 550 C 1222.238281 550 1220 547.761719 1220 545 L 1220 505 C 1220 502.238281 1222.238281 500 1225 500 Z M 1225 500 "/>
<g fill="rgb(0%, 0%, 0%)" fill-opacity="1">
<use xlink:href="#glyph-0-17" x="1224.515625" y="529.15625"/>
<use xlink:href="#glyph-0-14" x="1232.724609" y="529.15625"/>
<use xlink:href="#glyph-0-11" x="1240.341797" y="529.15625"/>
<use xlink:href="#glyph-0-20" x="1246.59375" y="529.15625"/>
<use xlink:href="#glyph-0-25" x="1253.935547" y="529.15625"/>
<use xlink:href="#glyph-0-6" x="1257.269531" y="529.15625"/>
<use xlink:href="#glyph-0-2" x="1264.875" y="529.15625"/>
<use xlink:href="#glyph-0-7" x="1269.580078" y="529.15625"/>
<use xlink:href="#glyph-0-9" x="1276.962891" y="529.15625"/>
<use xlink:href="#glyph-0-3" x="1280.777344" y="529.15625"/>
<use xlink:href="#glyph-0-1" x="1284.111328" y="529.15625"/>
<use xlink:href="#glyph-0-36" x="1291.716797" y="529.15625"/>
<use xlink:href="#glyph-0-3" x="1299.322266" y="529.15625"/>
<use xlink:href="#glyph-0-14" x="1302.65625" y="529.15625"/>
<use xlink:href="#glyph-0-3" x="1310.273438" y="529.15625"/>
<use xlink:href="#glyph-0-2" x="1313.607422" y="529.15625"/>
<use xlink:href="#glyph-0-3" x="1318.3125" y="529.15625"/>
<use xlink:href="#glyph-0-20" x="1321.646484" y="529.15625"/>
<use xlink:href="#glyph-0-1" x="1328.988281" y="529.15625"/>
</g>
<path fill-rule="nonzero" fill="rgb(100%, 100%, 100%)" fill-opacity="1" stroke-width="1.25" stroke-linecap="square" stroke-linejoin="miter" stroke="rgb(0%, 0%, 0%)" stroke-opacity="1" stroke-miterlimit="10" d="M 1460 525 L 1490 500 L 1550 500 L 1580 525 L 1550 550 L 1490 550 Z M 1460 525 "/>
<g fill="rgb(0%, 0%, 0%)" fill-opacity="1">
<use xlink:href="#glyph-0-32" x="1500.464844" y="529.15625"/>
<use xlink:href="#glyph-0-16" x="1507.794922" y="529.15625"/>
<use xlink:href="#glyph-0-8" x="1515.148438" y="529.15625"/>
<use xlink:href="#glyph-0-15" x="1520.082031" y="529.15625"/>
<use xlink:href="#glyph-0-7" x="1527.699219" y="529.15625"/>
<use xlink:href="#glyph-0-2" x="1535.082031" y="529.15625"/>
</g>
<path fill-rule="nonzero" fill="rgb(100%, 100%, 100%)" fill-opacity="1" stroke-width="1.25" stroke-linecap="square" stroke-linejoin="miter" stroke="rgb(0%, 0%, 0%)" stroke-opacity="1" stroke-miterlimit="10" d="M 800 655 L 966.5 655 L 980 668.5 L 980 730 L 875.601562 730 L 1020 745 L 832.398438 730 L 800 730 Z M 800 655 "/>
<g fill="rgb(0%, 0%, 0%)" fill-opacity="1">
<use xlink:href="#glyph-0-17" x="857.652344" y="696.65625"/>
<use xlink:href="#glyph-0-1" x="865.861328" y="696.65625"/>
<use xlink:href="#glyph-0-1" x="873.466797" y="696.65625"/>
<use xlink:href="#glyph-0-20" x="881.072266" y="696.65625"/>
<use xlink:href="#glyph-0-2" x="888.414062" y="696.65625"/>
<use xlink:href="#glyph-0-16" x="893.119141" y="696.65625"/>
<use xlink:href="#glyph-0-2" x="900.472656" y="696.65625"/>
<use xlink:href="#glyph-0-3" x="905.177734" y="696.65625"/>
<use xlink:href="#glyph-0-20" x="908.511719" y="696.65625"/>
<use xlink:href="#glyph-0-1" x="915.853516" y="696.65625"/>
</g>
<path fill-rule="nonzero" fill="rgb(100%, 100%, 100%)" fill-opacity="1" stroke-width="1.25" stroke-linecap="square" stroke-linejoin="miter" stroke="rgb(0%, 0%, 0%)" stroke-opacity="1" stroke-miterlimit="10" d="M 1005 375 C 1005 386.046875 996.046875 395 985 395 C 973.953125 395 965 386.046875 965 375 C 965 363.953125 973.953125 355 985 355 C 996.046875 355 1005 363.953125 1005 375 "/>
<path fill-rule="nonzero" fill="rgb(0%, 0%, 0%)" fill-opacity="1" stroke-width="1.25" stroke-linecap="square" stroke-linejoin="miter" stroke="rgb(0%, 0%, 0%)" stroke-opacity="1" stroke-miterlimit="10" d="M 230 485 C 230 490.523438 225.523438 495 220 495 C 214.476562 495 210 490.523438 210 485 C 210 479.476562 214.476562 475 220 475 C 225.523438 475 230 479.476562 230 485 "/>
<path fill-rule="nonzero" fill="rgb(0%, 0%, 0%)" fill-opacity="1" stroke-width="1.25" stroke-linecap="square" stroke-linejoin="miter" stroke="rgb(0%, 0%, 0%)" stroke-opacity="1" stroke-miterlimit="10" d="M 890 132 C 890 137.523438 885.523438 142 880 142 C 874.476562 142 870 137.523438 870 132 C 870 126.476562 874.476562 122 880 122 C 885.523438 122 890 126.476562 890 132 "/>
<path fill-rule="nonzero" fill="rgb(0%, 0%, 0%)" fill-opacity="1" stroke-width="1.25" stroke-linecap="square" stroke-linejoin="miter" stroke="rgb(0%, 0%, 0%)" stroke-opacity="1" stroke-miterlimit="10" d="M 1052 375 C 1052 379.417969 1048.417969 383 1044 383 C 1039.582031 383 1036 379.417969 1036 375 C 1036 370.582031 1039.582031 367 1044 367 C 1048.417969 367 1052 370.582031 1052 375 "/>
<path fill-rule="nonzero" fill="rgb(0%, 0%, 0%)" fill-opacity="1" d="M 180.875 479.5625 L 170 485 L 180.875 490.4375 Z M 180.875 479.5625 "/>
<path fill-rule="nonzero" fill="rgb(0%, 0%, 0%)" fill-opacity="1" d="M 259.125 490.4375 L 270 485 L 259.125 479.5625 Z M 259.125 490.4375 "/>
<path fill-rule="nonzero" fill="rgb(100%, 100%, 100%)" fill-opacity="1" stroke-width="1" stroke-linecap="square" stroke-linejoin="miter" stroke="rgb(0%, 0%, 0%)" stroke-opacity="1" stroke-miterlimit="10" d="M 1456.125 80.4375 L 1450.6875 75 L 1456.125 69.5625 L 1461.5625 75 Z M 1456.125 80.4375 "/>
<path fill-rule="nonzero" fill="rgb(100%, 100%, 100%)" fill-opacity="1" stroke-width="1" stroke-linecap="square" stroke-linejoin="miter" stroke="rgb(0%, 0%, 0%)" stroke-opacity="1" stroke-miterlimit="10" d="M 1452.25 170.4375 L 1463.125 165 L 1452.25 159.5625 Z M 1452.25 170.4375 "/>
<path fill-rule="nonzero" fill="rgb(100%, 100%, 100%)" fill-opacity="1" stroke-width="1" stroke-linecap="square" stroke-linejoin="miter" stroke="rgb(0%, 0%, 0%)" stroke-opacity="1" stroke-miterlimit="10" d="M 1452.25 260.4375 L 1463.125 255 L 1452.25 249.5625 Z M 1452.25 260.4375 "/>
<path fill-rule="nonzero" fill="rgb(100%, 100%, 100%)" fill-opacity="1" stroke-width="1" stroke-linecap="square" stroke-linejoin="miter" stroke="rgb(0%, 0%, 0%)" stroke-opacity="1" stroke-miterlimit="10" d="M 1448.625 260.4375 L 1447.375 260.4375 L 1447.375 249.5625 L 1448.625 249.5625 Z M 1448.625 260.4375 "/>
<path fill-rule="nonzero" fill="rgb(100%, 100%, 100%)" fill-opacity="1" stroke-width="1.5" stroke-linecap="square" stroke-linejoin="miter" stroke="rgb(0%, 0%, 0%)" stroke-opacity="1" stroke-miterlimit="10" d="M 1452.25 350.4375 L 1463.125 345 L 1452.25 339.5625 Z M 1452.25 350.4375 "/>
<path fill-rule="nonzero" fill="rgb(100%, 100%, 100%)" fill-opacity="1" stroke-width="1.5" stroke-linecap="square" stroke-linejoin="miter" stroke="rgb(0%, 0%, 0%)" stroke-opacity="1" stroke-miterlimit="10" d="M 1439.199219 350.4375 L 1450.074219 345 L 1439.199219 339.5625 Z M 1439.199219 350.4375 "/>
<path fill="none" stroke-width="1.25" stroke-linecap="square" stroke-linejoin="miter" stroke="rgb(0%, 0%, 0%)" stroke-opacity="1" stroke-miterlimit="10" d="M 1460 429.5625 L 1460 440.4375 "/>
<path fill="none" stroke-width="1.25" stroke-linecap="square" stroke-linejoin="miter" stroke="rgb(0%, 0%, 0%)" stroke-opacity="1" stroke-miterlimit="10" d="M 1460 519.5625 L 1460 530.4375 "/>
<path fill="none" stroke-width="1.25" stroke-linecap="square" stroke-linejoin="miter" stroke="rgb(0%, 0%, 0%)" stroke-opacity="1" stroke-miterlimit="10" d="M 1455.648438 519.5625 L 1455.648438 530.4375 "/>
<path fill-rule="nonzero" fill="rgb(0%, 0%, 0%)" fill-opacity="1" d="M 931.445312 301.601562 L 920 297.5 L 923.585938 309.117188 Z M 931.445312 301.601562 "/>
<path fill-rule="nonzero" fill="rgb(0%, 0%, 0%)" fill-opacity="1" d="M 922.242188 455.550781 L 920 467.5 L 930.90625 462.121094 Z M 922.242188 455.550781 "/>
<path fill-rule="nonzero" fill="rgb(0%, 0%, 0%)" fill-opacity="1" d="M 1049.125 380.4375 L 1060 375 L 1049.125 369.5625 Z M 1049.125 380.4375 "/>
<path fill-rule="nonzero" fill="rgb(100%, 100%, 100%)" fill-opacity="1" stroke-width="1.25" stroke-linecap="square" stroke-linejoin="miter" stroke="rgb(0%, 0%, 0%)" stroke-opacity="1" stroke-miterlimit="10" d="M 1020 366 L 1042 366 L 1042 384 L 1020 384 Z M 1020 366 "/>
<g fill="rgb(0%, 0%, 0%)" fill-opacity="1">
<use xlink:href="#glyph-2-0" x="1028.515625" y="378.117188"/>
</g>
</svg>
