<svg xmlns="http://www.w3.org/2000/svg" version="1.1" width="570.000px" height="295.000px" viewBox="0 0 570.000 295.000"><rect x="0" y="0" width="570.000" height="295.000" fill="#ffffff"/>
<path d="M120.000 84.000L120.000 158.000" fill="none" stroke="#000000" stroke-width="1.250"/>
<path d="M395.000 84.000L410.000 158.000" fill="none" stroke="#000000" stroke-width="1.250"/>
<path d="M112.000 50.000L128.000 50.000Q145.000 50.000 145.000 67.000L145.000 67.000Q145.000 84.000 128.000 84.000L112.000 84.000Q95.000 84.000 95.000 67.000L95.000 67.000Q95.000 50.000 112.000 50.000Z" fill="#ffffff" stroke="#000000" stroke-width="1.250"/>
<text x="120.000" y="67.000" text-anchor="middle" dominant-baseline="middle" font-family="Arial, 'Liberation Sans', Arimo, sans-serif" font-size="12.000" fill="#000000">P</text>
<path d="M57.500 170.000L222.500 170.000Q230.000 170.000 230.000 177.500L230.000 237.500Q230.000 245.000 222.500 245.000L57.500 245.000Q50.000 245.000 50.000 237.500L50.000 177.500Q50.000 170.000 57.500 170.000Z" fill="#ffffff" stroke="#000000" stroke-width="1.250"/>
<text x="140.000" y="207.500" text-anchor="middle" dominant-baseline="middle" font-family="Arial, 'Liberation Sans', Arimo, sans-serif" font-size="12.000" fill="#000000">CaMKII</text>
<path d="M117.000 158.000L163.000 158.000Q175.000 158.000 175.000 170.000L175.000 170.000Q175.000 182.000 163.000 182.000L117.000 182.000Q105.000 182.000 105.000 170.000L105.000 170.000Q105.000 158.000 117.000 158.000Z" fill="#ffffff" stroke="#000000" stroke-width="1.250"/>
<text x="140.000" y="170.000" text-anchor="middle" dominant-baseline="middle" font-family="Arial, 'Liberation Sans', Arimo, sans-serif" font-size="8.000" fill="#000000">T306</text>
<path d="M387.000 50.000L403.000 50.000Q420.000 50.000 420.000 67.000L420.000 67.000Q420.000 84.000 403.000 84.000L387.000 84.000Q370.000 84.000 370.000 67.000L370.000 67.000Q370.000 50.000 387.000 50.000Z" fill="#ffffff" stroke="#000000" stroke-width="1.250"/>
<text x="395.000" y="67.000" text-anchor="middle" dominant-baseline="middle" font-family="Arial, 'Liberation Sans', Arimo, sans-serif" font-size="12.000" fill="#000000">T</text>
<path d="M307.500 170.000L512.500 170.000Q520.000 170.000 520.000 177.500L520.000 237.500Q520.000 245.000 512.500 245.000L307.500 245.000Q300.000 245.000 300.000 237.500L300.000 177.500Q300.000 170.000 307.500 170.000Z" fill="#ffffff" stroke="#000000" stroke-width="1.250"/>
<text x="410.000" y="207.500" text-anchor="middle" dominant-baseline="middle" font-family="Arial, 'Liberation Sans', Arimo, sans-serif" font-size="12.000" fill="#000000">CaMKII P@T306</text>
<path d="M422.000 170.000Q422.000 174.971 418.485 178.485Q414.971 182.000 410.000 182.000Q405.029 182.000 401.515 178.485Q398.000 174.971 398.000 170.000Q398.000 165.029 401.515 161.515Q405.029 158.000 410.000 158.000Q414.971 158.000 418.485 161.515Q422.000 165.029 422.000 170.000Z" fill="#ffffff" stroke="#000000" stroke-width="1.250"/>
<clipPath id="clip-0"><path clip-rule="nonzero" d="M422.000 170.000Q422.000 174.971 418.485 178.485Q414.971 182.000 410.000 182.000Q405.029 182.000 401.515 178.485Q398.000 174.971 398.000 170.000Q398.000 165.029 401.515 161.515Q405.029 158.000 410.000 158.000Q414.971 158.000 418.485 161.515Q422.000 165.029 422.000 170.000Z"/></clipPath>
<path d="M410.000 158.000L422.000 158.000L422.000 182.000L410.000 182.000Z" fill="#000000" stroke="none" stroke-width="0.000" clip-path="url(#clip-0)"/>
<path d="M422.000 170.000Q422.000 174.971 418.485 178.485Q414.971 182.000 410.000 182.000Q405.029 182.000 401.515 178.485Q398.000 174.971 398.000 170.000Q398.000 165.029 401.515 161.515Q405.029 158.000 410.000 158.000Q414.971 158.000 418.485 161.515Q422.000 165.029 422.000 170.000Z" fill="none" stroke="#000000" stroke-width="1.250"/>
<path d="M128.000 125.000Q128.000 128.314 125.657 130.657Q123.314 133.000 120.000 133.000Q116.686 133.000 114.343 130.657Q112.000 128.314 112.000 125.000Q112.000 121.686 114.343 119.343Q116.686 117.000 120.000 117.000Q123.314 117.000 125.657 119.343Q128.000 121.686 128.000 125.000Z" fill="#000000" stroke="#000000" stroke-width="1.250"/>
<path d="M418.000 125.000Q418.000 128.314 415.657 130.657Q413.314 133.000 410.000 133.000Q406.686 133.000 404.343 130.657Q402.000 128.314 402.000 125.000Q402.000 121.686 404.343 119.343Q406.686 117.000 410.000 117.000Q413.314 117.000 415.657 119.343Q418.000 121.686 418.000 125.000Z" fill="#000000" stroke="#000000" stroke-width="1.250"/>
<path d="M120.000 161.125L114.562 150.250L120.000 153.512L125.438 150.250Z" fill="#000000" stroke="#000000" stroke-width="1.000"/>
<path d="M410.621 161.063L403.131 151.485L409.108 153.602L413.789 149.324Z" fill="#000000" stroke="#000000" stroke-width="1.000"/>
</svg>
