<svg xmlns="http://www.w3.org/2000/svg" version="1.1" width="570.000px" height="350.000px" viewBox="0 0 570.000 350.000"><rect x="0" y="0" width="570.000" height="350.000" fill="#ffffff"/>
<path d="M90.000 84.000L135.000 158.000" fill="none" stroke="#000000" stroke-width="1.250"/>
<path d="M220.000 207.000L255.000 200.000" fill="none" stroke="#000000" stroke-width="1.250"/>
<path d="M291.000 200.000L310.000 150.000" fill="none" stroke="#000000" stroke-width="1.250"/>
<path d="M291.000 200.000L310.000 265.000" fill="none" stroke="#000000" stroke-width="1.250"/>
<path d="M82.000 50.000L98.000 50.000Q115.000 50.000 115.000 67.000L115.000 67.000Q115.000 84.000 98.000 84.000L82.000 84.000Q65.000 84.000 65.000 67.000L65.000 67.000Q65.000 50.000 82.000 50.000Z" fill="#ffffff" stroke="#000000" stroke-width="1.250"/>
<text x="90.000" y="67.000" text-anchor="middle" dominant-baseline="middle" font-family="Arial, 'Liberation Sans', Arimo, sans-serif" font-size="12.000" fill="#000000">P</text>
<path d="M57.500 170.000L212.500 170.000Q220.000 170.000 220.000 177.500L220.000 237.500Q220.000 245.000 212.500 245.000L57.500 245.000Q50.000 245.000 50.000 237.500L50.000 177.500Q50.000 170.000 57.500 170.000Z" fill="#ffffff" stroke="#000000" stroke-width="1.250"/>
<text x="135.000" y="207.500" text-anchor="middle" dominant-baseline="middle" font-family="Arial, 'Liberation Sans', Arimo, sans-serif" font-size="12.000" fill="#000000">CaMKII</text>
<path d="M112.000 158.000L158.000 158.000Q170.000 158.000 170.000 170.000L170.000 170.000Q170.000 182.000 158.000 182.000L112.000 182.000Q100.000 182.000 100.000 170.000L100.000 170.000Q100.000 158.000 112.000 158.000Z" fill="#ffffff" stroke="#000000" stroke-width="1.250"/>
<text x="135.000" y="170.000" text-anchor="middle" dominant-baseline="middle" font-family="Arial, 'Liberation Sans', Arimo, sans-serif" font-size="8.000" fill="#000000">T306</text>
<path d="M317.000 115.000L513.000 115.000Q520.000 115.000 520.000 122.000L520.000 178.000Q520.000 185.000 513.000 185.000L317.000 185.000Q310.000 185.000 310.000 178.000L310.000 122.000Q310.000 115.000 317.000 115.000Z" fill="#ffffff" stroke="#000000" stroke-width="1.250"/>
<text x="415.000" y="150.000" text-anchor="middle" dominant-baseline="middle" font-family="Arial, 'Liberation Sans', Arimo, sans-serif" font-size="12.000" fill="#000000">CaMKII P@T306</text>
<path d="M317.000 230.000L513.000 230.000Q520.000 230.000 520.000 237.000L520.000 293.000Q520.000 300.000 513.000 300.000L317.000 300.000Q310.000 300.000 310.000 293.000L310.000 237.000Q310.000 230.000 317.000 230.000Z" fill="#ffffff" stroke="#000000" stroke-width="1.250"/>
<text x="415.000" y="265.000" text-anchor="middle" dominant-baseline="middle" font-family="Arial, 'Liberation Sans', Arimo, sans-serif" font-size="12.000" fill="#000000">CaMKII P@T286</text>
<path d="M291.000 200.000Q291.000 203.580 289.630 206.888Q288.260 210.196 285.728 212.728Q283.196 215.260 279.888 216.630Q276.580 218.000 273.000 218.000Q269.420 218.000 266.112 216.630Q262.804 215.260 260.272 212.728Q257.740 210.196 256.370 206.888Q255.000 203.580 255.000 200.000Q255.000 196.420 256.370 193.112Q257.740 189.804 260.272 187.272Q262.804 184.740 266.112 183.370Q269.420 182.000 273.000 182.000Q276.580 182.000 279.888 183.370Q283.196 184.740 285.728 187.272Q288.260 189.804 289.630 193.112Q291.000 196.420 291.000 200.000Z" fill="#ffffff" stroke="#000000" stroke-width="1.250"/>
<path d="M129.000 125.000Q129.000 128.314 126.657 130.657Q124.314 133.000 121.000 133.000Q117.686 133.000 115.343 130.657Q113.000 128.314 113.000 125.000Q113.000 121.686 115.343 119.343Q117.686 117.000 121.000 117.000Q124.314 117.000 126.657 119.343Q129.000 121.686 129.000 125.000Z" fill="#000000" stroke="#000000" stroke-width="1.250"/>
<path d="M136.624 160.670L126.327 154.203L132.668 154.166L135.619 148.553Z" fill="#000000" stroke="#000000" stroke-width="1.000"/>
<path d="M229.597 199.535L220.000 207.000L231.730 210.199Z" fill="#000000" stroke="none" stroke-width="0.000"/>
<path d="M311.220 162.097L310.000 150.000L301.054 158.234Z" fill="#000000" stroke="none" stroke-width="0.000"/>
<path d="M301.730 256.087L310.000 265.000L312.168 253.036Z" fill="#000000" stroke="none" stroke-width="0.000"/>
</svg>
